<svg xmlns="http://www.w3.org/2000/svg" width="21.932" height="20.207" viewBox="0 0 21.932 20.207"><g transform="translate(0.65 0.652)"><path d="M14.754,6.3V4.2A3.97,3.97,0,0,0,11.066,0H3.689A3.97,3.97,0,0,0,0,4.2V6.3" transform="translate(0 12.604)" fill="none" stroke="#343a4f" stroke-linecap="round" stroke-linejoin="round" stroke-miterlimit="10" stroke-width="1.3"/><ellipse cx="4.297" cy="4.201" rx="4.297" ry="4.201" transform="translate(3.297 0)" fill="none" stroke="#343a4f" stroke-linecap="round" stroke-linejoin="round" stroke-miterlimit="10" stroke-width="1.3"/><path d="M3.223,6.165v-2.1A4.219,4.219,0,0,0,0,0" transform="translate(17.409 12.74)" fill="none" stroke="#343a4f" stroke-linecap="round" stroke-linejoin="round" stroke-miterlimit="10" stroke-width="1.3"/><path d="M0,0A4.219,4.219,0,0,1,3.231,4.07,4.219,4.219,0,0,1,0,8.14" transform="translate(13.113 0.137)" fill="none" stroke="#343a4f" stroke-linecap="round" stroke-linejoin="round" stroke-miterlimit="10" stroke-width="1.3"/></g></svg>