<svg xmlns="http://www.w3.org/2000/svg" width="21.959" height="21.959" viewBox="0 0 21.959 21.959"><path d="M21.959,8.009,19.386,6.722V1.93a1.93,1.93,0,1,0-3.86,0v.2L6.956,5.447H0V16.512H6.956l8.569,3.314v.2a1.93,1.93,0,0,0,3.86,0V15.237l2.573-1.287ZM6.433,11.962H3.86V10H6.433Zm0-3.252H3.86V6.733H6.433ZM3.86,13.249H6.433v1.977H3.86ZM1.287,6.733H2.573v8.492H1.287ZM7.72,15.428v-8.9l7.806-3.019V18.447Zm10.379,4.6a.643.643,0,0,1-1.287,0V1.93a.643.643,0,1,1,1.287,0Zm2.573-6.874-1.287.643V8.16l1.287.643Zm0,0" transform="translate(0 0)" fill="#343a4f"/></svg>