<svg xmlns="http://www.w3.org/2000/svg" xmlns:xlink="http://www.w3.org/1999/xlink" width="18.365" height="18.365" viewBox="0 0 18.365 18.365"><defs><clipPath id="a"><path d="M0,9.182a9.183,9.183,0,0,0,9.182,9.183h0a9.183,9.183,0,0,0,9.183-9.183h0A9.183,9.183,0,0,0,9.182,0h0A9.183,9.183,0,0,0,0,9.182Z" fill="none"/></clipPath></defs><g transform="translate(-0.122 -0.272)"><path d="M0,9.182a9.183,9.183,0,0,0,9.182,9.183h0a9.183,9.183,0,0,0,9.183-9.183h0A9.183,9.183,0,0,0,9.182,0h0A9.183,9.183,0,0,0,0,9.182Z" transform="translate(0.122 0.272)" fill="none"/><g transform="translate(0.122 0.272)" clip-path="url(#a)"><path d="M0,19.22H31.423V0H0Z" transform="translate(-6.529 -0.419)" fill="#04247b"/><path d="M27.876,0,18.3,5.894,0,17.107v2.129H3.549L31.423,2.146V.016L30.853,0Z" transform="translate(-6.529 -0.435)" fill="#fff"/><path d="M31.423,17.091,3.628,0H0V2.194L27.928,19.221h3.5Z" transform="translate(-6.529 -0.419)" fill="#fff"/><path d="M31.423,6.44H0V0L31.423.032Z" transform="translate(-6.529 5.971)" fill="#fff"/><path d="M0,0V19.22H5.237L5.211,0Z" transform="translate(6.577 -0.419)" fill="#fff"/><path d="M31.423,0H0V3.812l31.423.031Z" transform="translate(-6.529 7.286)" fill="#ce142a"/><path d="M10.528,0,0,6.428H2.41L12.871.016,12.3,0Z" transform="translate(12.024 -0.435)" fill="#ce142a"/><path d="M3.142,0,3.115,19.22H0L.025,0Z" transform="translate(7.599 -0.419)" fill="#ce142a"/><path d="M0,0,10.436,6.4,8.1,6.4,0,1.393Z" transform="translate(-6.529 -0.419)" fill="#ce142a"/><path d="M0,6.391,10.436,0h2.278L2.37,6.391Z" transform="translate(-6.529 12.41)" fill="#ce142a"/><path d="M0,0,10.382,6.391V4.933L2.278,0Z" transform="translate(14.512 12.411)" fill="#ce142a"/></g></g></svg>