<svg xmlns="http://www.w3.org/2000/svg" width="15.795" height="15.795" viewBox="0 0 15.795 15.795"><path d="M14.36,15.8H10.051A1.437,1.437,0,0,1,8.616,14.36V10.051a1.437,1.437,0,0,1,1.436-1.436H14.36A1.437,1.437,0,0,1,15.8,10.051V14.36A1.437,1.437,0,0,1,14.36,15.8Zm-8.616,0H1.436A1.434,1.434,0,0,1,0,14.366V1.43A1.434,1.434,0,0,1,1.436,0H5.744A1.434,1.434,0,0,1,7.18,1.43V14.366A1.434,1.434,0,0,1,5.744,15.8ZM14.36,7.18H10.051A1.437,1.437,0,0,1,8.616,5.744V1.436A1.437,1.437,0,0,1,10.051,0H14.36A1.437,1.437,0,0,1,15.8,1.436V5.744A1.437,1.437,0,0,1,14.36,7.18Z" fill="#fff"/></svg>