<svg xmlns="http://www.w3.org/2000/svg" xmlns:xlink="http://www.w3.org/1999/xlink" width="17.142" height="17.143" viewBox="0 0 17.142 17.143"><defs><clipPath id="a"><path d="M0,8.571a8.572,8.572,0,0,0,8.571,8.571h0a8.572,8.572,0,0,0,8.571-8.571h0A8.571,8.571,0,0,0,8.571,0h0A8.571,8.571,0,0,0,0,8.571Z" fill="none"/></clipPath></defs><g transform="translate(-0.122 -0.443)"><path d="M0,8.571a8.572,8.572,0,0,0,8.571,8.571h0a8.572,8.572,0,0,0,8.571-8.571h0A8.571,8.571,0,0,0,8.571,0h0A8.571,8.571,0,0,0,0,8.571Z" transform="translate(0.122 0.443)" fill="none"/><g transform="translate(0.122 0.443)" clip-path="url(#a)"><path d="M0,6.011H29.2V0H0Z" transform="translate(-6.031 -0.446)" fill="#cd1225"/><path d="M0,6.015H29.2V0H0Z" transform="translate(-6.031 11.574)"/><path d="M0,6.008H29.2V0H0Z" transform="translate(-6.031 5.565)" fill="#fff"/><path d="M2.075.041s0-.07.214-.026.4.082.4.42a1.679,1.679,0,0,0,.149.873,1.312,1.312,0,0,0,.665-.2c.273-.145.675-.24.817.014,0,0,.066.014.066.491s.077,1.505.077,1.505.088,1.569.058,1.731c-.187-.172-1.208-1.007-1.208-1.007l.266.818s.168-.084.241-.017c.147,0,.223.112.168.284.106,0,.165.149.2.149s.078,0,.078.036-.057.038-.057.038-.022.169-.135.2c0,.115.018.18-.339.25a12.917,12.917,0,0,1-1.972.1A6.966,6.966,0,0,1,.6,5.545s-.142,0-.142-.183a.228.228,0,0,1-.128-.2A.063.063,0,0,1,.27,5.1s.011-.023.077-.023a.237.237,0,0,1,.186-.14c-.018-.155.015-.277.19-.3.046-.043.117,0,.241.02.081-.281.242-.808.242-.808L0,4.861l.08-1.92L.157,1.26S.226.819.771,1.007a2.231,2.231,0,0,0,.912.3,1.179,1.179,0,0,0,.29-.928.181.181,0,0,0-.286-.1C1.615.21,1.616-.076,2.075.041" transform="translate(6.303 5.724)" fill="#bf920d"/><path d="M.592.194s.03-.115.3-.088c.1,0,.1.267.1.4a1.578,1.578,0,0,0,.19.791c-.121,0-.2-.024-.236-.155A4.925,4.925,0,0,1,.847.64H.8a2.033,2.033,0,0,0,.186.711C.811,1.294.763,1.269.742,1.195S.719.61.719.61l-.047,0L.7,1.25l-.106.1-.106-.1A1.47,1.47,0,0,0,.6.587H.566a1.589,1.589,0,0,1-.12.652,1.37,1.37,0,0,1-.194.128l.03-.122A1.336,1.336,0,0,0,.49.592H.453a1.629,1.629,0,0,1-.2.633A.8.8,0,0,1,0,1.316a1.26,1.26,0,0,0,.358-1H.493S.325.069.23.069A.18.18,0,0,0,.044.163C.032.066.084-.023.224.005S.431.135.468.135s.063,0,.084.043a.053.053,0,0,0,.04.016" transform="translate(7.963 5.795)" fill="#fff"/><path d="M.507.467A.042.042,0,0,1,.462.506.043.043,0,0,1,.416.467.043.043,0,0,1,.462.427a.043.043,0,0,1,.045.04" transform="translate(8.073 5.421)" fill="#fff"/><path d="M2.662.331,2.746.41a.451.451,0,0,1-.269-.04C2.5.431,2.5.476,2.419.453a.747.747,0,0,1-.226-.11L2.055.47,1.927.343S1.769.5,1.652.5A.927.927,0,0,0,1.7.343a.566.566,0,0,1-.321.081L1.466.341A1.2,1.2,0,0,1,1.034.255,1.807,1.807,0,0,0,.306,0C.053,0,.017.228,0,.347L.234.237.077,3.579l.077-.071L.306.289.547.478.416,3.292l.1-.09L.639.563.828.7l-.1,2.333.106-.1L.931.741,1.073.8V.782A1.715,1.715,0,0,0,2.081.518,1.374,1.374,0,0,0,3.04.79v.02L3.2.738l.1,2.188.1.1L3.3.7,3.486.559,3.61,3.2l.1.089L3.588.475,3.829.289l.147,3.217.076.071L3.906.241l.23.105S4.129.007,3.847.005c-.489,0-.74.355-1.185.326" transform="translate(6.504 6.725)" fill="#fff"/><path d="M.427,0,.361,1.485l.11-.332L.511.278S.456.112.427,0" transform="translate(7.179 7.961)" fill="#fff"/><path d="M.945,2.066h0A2.2,2.2,0,0,1,0,.257,2.029,2.029,0,0,0,.945,0a1.775,1.775,0,0,0,.942.257A2.108,2.108,0,0,1,.946,2.066ZM.953.054h0A1.81,1.81,0,0,1,.044.3a2.207,2.207,0,0,0,.492,1.33A1.739,1.739,0,0,0,.944,2a2.071,2.071,0,0,0,.893-1.7h0A1.892,1.892,0,0,1,.953.054Z" transform="translate(7.624 7.298)" fill="#fff"/><path d="M.35,1.874.664,1.59V.146A1.171,1.171,0,0,1,.354,0,2.188,2.188,0,0,1,0,.153l.006,1.4a1.819,1.819,0,0,0,.344.318" transform="translate(8.22 7.393)" fill="#fff"/><path d="M.358.3.4,1.2l.109.348L.446,0Z" transform="translate(9.088 7.926)" fill="#fff"/><path d="M.353,0,.521.521.444.674l-.2-.19L.269.139Z" transform="translate(8.944 8.6)" fill="#fff"/><path d="M.508.281.486.517.4.434Z" transform="translate(8.657 8.538)" fill="#fff"/><path d="M.412.13l.1.1L.5.529.292.272Z" transform="translate(8.603 8.875)" fill="#fff"/><path d="M.441.115.514.181.4.53.327.215Z" transform="translate(8.414 9.067)" fill="#fff"/><path d="M.1.166.267.349.318,0,.541.208.621.061.785.572.544.349.441.6.263.4.179.764,0,.511Z" transform="translate(8.851 9.131)" fill="#fff"/><path d="M.335.031.513.277.455.537Z" transform="translate(8.502 9.669)" fill="#fff"/><path d="M0,.4.16.626.256.36.445.62.566.211.338,0,.252.258.07.051Z" transform="translate(9.066 9.546)" fill="#fff"/><path d="M.006.324.057.538.229.53.3.327.419.511H.473L.539.273.371.021.28.287l-.2-.25Z" transform="translate(8.969 9.96)" fill="#fff"/><path d="M.334,0,.521.581.412.6.233.386Z" transform="translate(9.32 9.811)" fill="#fff"/><path d="M.379.324.514.487.321.514Z" transform="translate(9.165 9.936)" fill="#fff"/><path d="M.432.39.509.495.388.509Z" transform="translate(8.846 9.979)" fill="#fff"/><path d="M.408,0,.24.521.317.672.52.483.491.139Z" transform="translate(7.425 8.616)" fill="#fff"/><path d="M.4.282.417.517.508.434Z" transform="translate(7.568 8.554)" fill="#fff"/><path d="M.4.13l-.1.1.016.3L.516.272Z" transform="translate(7.718 8.891)" fill="#fff"/><path d="M.4.115.327.181.436.53.514.215Z" transform="translate(7.874 9.083)" fill="#fff"/><path d="M.683.166.519.349.468,0,.243.208.164.061,0,.572.242.349l.1.25L.523.4.606.764.785.511Z" transform="translate(7.492 9.147)" fill="#fff"/><path d="M.513.03.335.276l.058.26Z" transform="translate(7.779 9.685)" fill="#fff"/><path d="M.566.4.406.628.311.361.121.621,0,.212.228,0,.314.258.5.053Z" transform="translate(7.496 9.547)" fill="#fff"/><path d="M.539.324.487.538.316.531.243.329.126.511H.071L.006.273.174.021.265.287l.2-.251Z" transform="translate(7.615 9.962)" fill="#fff"/><path d="M.419,0,.233.581.342.6.521.386Z" transform="translate(7.067 9.816)" fill="#fff"/><path d="M.456.324.321.487.514.514Z" transform="translate(7.144 9.937)" fill="#fff"/><path d="M.465.39l-.077.1L.509.509Z" transform="translate(7.406 9.976)" fill="#fff"/><path d="M.032.764,0,.886S.219.835.263.933a.087.087,0,0,1,.12.081H.459A.105.105,0,0,1,.58.925C.628.881.639.866.843.881L.809.758.727.833.614.751.5,0,.534.753.422.89.308.743.344,0,.227.751.108.837Z" transform="translate(8.15 9.618)" fill="#fff"/><path d="M.96.316A.861.861,0,0,1,.739.3C.748.21.713.154.646.145H.63c-.052,0-.1.043-.118.116C.347.241,0,.151,0,.15H0V.144C0,.056.011.022.023.009A.027.027,0,0,1,.043,0,.855.855,0,0,1,.177.028,3.314,3.314,0,0,0,.582.11a4.415,4.415,0,0,0,.56.046c.04,0,.081,0,.122,0h.013A.069.069,0,0,1,1.339.2a.033.033,0,0,1,0,.035L1.262.3H1.256C1.151.311,1.046.316.96.316Z" transform="translate(7.05 10.376)" fill="#fff"/><path d="M.383.318C.236.318.087.3.081.3L.005.23A.032.032,0,0,1,0,.2.068.068,0,0,1,.066.153H.078C.12.156.16.157.2.157A4.443,4.443,0,0,0,.761.111,3.259,3.259,0,0,0,1.168.028.843.843,0,0,1,1.3,0a.026.026,0,0,1,.02.009c.03.032.022.141.022.142L1.32.157a4.453,4.453,0,0,1-.489.1C.808.186.766.144.712.144H.7C.63.155.6.212.6.3A.852.852,0,0,1,.383.318Z" transform="translate(8.749 10.379)" fill="#fff"/><path d="M.447.515S.364.455.364.426s0-.118.064-.118a.088.088,0,0,1,.078.12A.187.187,0,0,1,.447.515" transform="translate(9.028 10.243)" fill="#fff"/><path d="M.419.289A1.247,1.247,0,0,0,.511.4C.463.445.387.482.387.517.356.459.321.319.419.289" transform="translate(8.283 10.29)" fill="#fff"/><path d="M.428.515S.511.453.511.424.506.307.448.307a.088.088,0,0,0-.078.12A.2.2,0,0,0,.428.515" transform="translate(7.238 10.24)" fill="#fff"/><path d="M.447.289A1.268,1.268,0,0,1,.355.4C.4.445.479.482.479.517.51.46.545.319.447.289" transform="translate(7.993 10.285)" fill="#fff"/><path d="M.509.329V.443L.383.513S.356.329.509.329" transform="translate(6.498 10.081)" fill="#fff"/><path d="M.378.331V.444l.129.07A.151.151,0,0,0,.378.331" transform="translate(9.759 10.077)" fill="#fff"/><path d="M2.877.1S3.3.03,3.39,0C3.5-.01,3.539.07,3.539.15c.1,0,.185.107.207.128a.211.211,0,0,1-.123.185c0,.108-.008.164-.181.2A7.938,7.938,0,0,1,2.229.778,9.439,9.439,0,0,1,.519.7C.129.621.126.623.126.472A.218.218,0,0,1,0,.283C.106.185.109.157.2.157A.146.146,0,0,1,.377.005C.475.03.72.08.862.1A.338.338,0,0,0,.939.217s.029.117.056,0A.223.223,0,0,0,1.078.135a2.6,2.6,0,0,0,.536.01c.093.063.147.106.147.157.056,0,.083-.167.083-.167H1.9s.019.142.085.157A.262.262,0,0,1,2.141.138a1.741,1.741,0,0,0,.524,0,.482.482,0,0,0,.072.088s.017.088.056.051c.016-.014.016-.062.016-.062A.717.717,0,0,0,2.877.1" transform="translate(6.701 10.571)" fill="#fff"/><path d="M.879.527A.079.079,0,0,1,.794.45h0C.773.446.743.436.743.424v0c0-.01,0-.017,0-.021a.015.015,0,0,0-.011,0C.712.394.682.408.682.42s0,0-.027,0S.593.422.545.417A.094.094,0,0,1,.456.468.205.205,0,0,1,.392.457C.392.447.4.445.418.442.453.436.506.426.506.331L.487.3.526.248A.147.147,0,0,1,.557.363a.377.377,0,0,0,.1.022L.687.343.614.311A.064.064,0,0,1,.684.244C.7.227.724.2.752.2S.8.221.813.266C.85.3.868.33.862.346S.845.361.824.361l-.033,0V.385C.835.391.845.407.845.419S.856.483.871.483.885.474.891.457A1.266,1.266,0,0,0,.913.208L.9.191.981.142a.008.008,0,0,1,0,0V.151C.972.291.946.527.879.527ZM.388.376h0C.372.373.069.3,0,.287A.064.064,0,0,1,.01.231.184.184,0,0,1,.124.176L.163.056H.112a.06.06,0,0,1-.035.02A.015.015,0,0,1,.063.068a.061.061,0,0,1,0-.027c0-.014.007-.022.02-.022A.093.093,0,0,1,.115.03L.225,0S.218.023.211.05C.195.1.171.183.155.232a.047.047,0,0,0,0,.043A.05.05,0,0,0,.2.29l.02,0L.236.214.214.193.3.153S.288.234.28.279A.023.023,0,0,0,.285.3.09.09,0,0,0,.348.315H.372L.393.244.367.22.458.188A.809.809,0,0,0,.441.325.049.049,0,0,1,.388.376Z" transform="translate(6.995 10.671)" fill="#bf920d"/><path d="M.473.286.441.516S.408.547.408.485.432.2.432.2L.507.271Z" transform="translate(7.593 10.617)" fill="#bf920d"/><path d="M.4.347A.11.11,0,0,1,.45.427C.45.478.367.514.367.514S.51.543.51.437A.239.239,0,0,0,.447.272Z" transform="translate(8.782 10.705)" fill="#bf920d"/><path d="M.5.427C.437.427.426.344.426.343H.416c-.025,0-.1,0-.246-.011C.162.4.1.418.045.418A.264.264,0,0,1,0,.414V.384s.1,0,.117-.05-.04-.1-.041-.1L.134.187A.175.175,0,0,1,.185.28H.234V.214L.2.179l0,0A.125.125,0,0,1,.265.14C.291.14.3.212.3.213H.529c.028,0,.039.005.042.009a.006.006,0,0,1,0,0V.295H.6A.152.152,0,0,1,.736.188a.022.022,0,0,1,.015,0c.017.016,0,.147,0,.162H.567A.068.068,0,0,1,.5.427ZM.848.343h0A.113.113,0,0,1,.92.2L.908.075a.04.04,0,0,1-.015,0,.016.016,0,0,1-.011,0,.017.017,0,0,1,0-.012L.945,0l0,.017a1.809,1.809,0,0,1,.03.226c0,.039.021.047.038.047A.1.1,0,0,0,1.051.282V.214L1.023.187,1.1.142l.026.176H1.116C1.058.327.97.335.848.343Z" transform="translate(8.024 10.828)" fill="#bf920d"/><path d="M.077.5A.19.19,0,0,1,.014.491C.021.49.079.475.092.447a.026.026,0,0,0,0-.023A.06.06,0,0,1,.051.441.05.05,0,0,1,0,.391c0-.046.078-.1.1-.1S.129.36.129.363l.049,0A.1.1,0,0,1,.24.241V.22L.211.193.279.13C.285.132.3.144.3.216.413.244.43.31.43.31H.464C.484.267.511.244.542.244A.125.125,0,0,1,.618.282L.66.268A.572.572,0,0,1,.632.183.359.359,0,0,0,.584.058.028.028,0,0,0,.565.05C.537.05.508.085.507.086L.45.032A.066.066,0,0,1,.486.008.17.17,0,0,1,.538,0,.131.131,0,0,1,.671.124C.694.25.733.259.744.259L.8.209.863.265C.813.282.706.307.625.326.607.368.582.389.551.389A.116.116,0,0,1,.484.361L.438.372A.113.113,0,0,1,.42.45.053.053,0,0,1,.379.467.1.1,0,0,1,.29.4.69.69,0,0,0,.153.418C.153.489.111.5.077.5Z" transform="translate(9.332 10.7)" fill="#bf920d"/><path d="M.505.481C.505.493.489.5.47.5S.435.493.435.481.45.458.47.458s.036.01.036.023" transform="translate(6.597 10.305)" fill="#bf920d"/><path d="M.5.482a.026.026,0,0,1-.051,0A.026.026,0,0,1,.5.482" transform="translate(6.596 10.544)" fill="#bf920d"/><path d="M.5.481C.5.493.491.5.474.5A.027.027,0,0,1,.445.481C.445.469.457.46.474.46S.5.469.5.481" transform="translate(6.683 10.567)" fill="#bf920d"/><path d="M.5.482C.5.493.492.5.476.5A.025.025,0,0,1,.448.482C.448.47.46.461.476.461S.5.47.5.482" transform="translate(6.812 10.612)" fill="#bf920d"/><path d="M.5.475A.031.031,0,0,1,.473.5.031.031,0,0,1,.442.475.031.031,0,0,1,.473.445.032.032,0,0,1,.5.475" transform="translate(8.387 10.429)" fill="#bf920d"/><path d="M.5.478a.031.031,0,0,1-.061,0A.028.028,0,0,1,.474.452.028.028,0,0,1,.5.478" transform="translate(8.392 10.505)" fill="#bf920d"/><path d="M.5.479A.029.029,0,0,1,.474.5.029.029,0,0,1,.443.479.028.028,0,0,1,.474.454.029.029,0,0,1,.5.479" transform="translate(8.477 10.738)" fill="#bf920d"/><path d="M.5.481A.025.025,0,0,1,.476.5.025.025,0,0,1,.45.481.024.024,0,0,1,.476.459.025.025,0,0,1,.5.481" transform="translate(8.555 10.738)" fill="#bf920d"/><path d="M.5.478A.031.031,0,0,1,.471.5.03.03,0,0,1,.438.478.031.031,0,0,1,.471.45.031.031,0,0,1,.5.478" transform="translate(9.601 10.582)" fill="#bf920d"/></g></g></svg>