<svg xmlns="http://www.w3.org/2000/svg" width="29.165" height="22.195" viewBox="0 0 29.165 22.195"><path d="M25.6,57.75H3.566A3.57,3.57,0,0,0,0,61.316V76.379a3.57,3.57,0,0,0,3.566,3.566H25.6a3.57,3.57,0,0,0,3.566-3.566V61.322A3.566,3.566,0,0,0,25.6,57.75Zm1.937,18.629A1.939,1.939,0,0,1,25.6,78.316H3.566a1.939,1.939,0,0,1-1.937-1.937V61.322a1.939,1.939,0,0,1,1.937-1.937H25.6a1.939,1.939,0,0,1,1.937,1.937V76.379Z" transform="translate(0 -57.75)" fill="#d51b91"/><path d="M70.781,116.726l7.133-6.4a.816.816,0,1,0-1.092-1.213l-9.836,8.829-1.919-1.714c-.006-.006-.012-.012-.012-.018a1.206,1.206,0,0,0-.133-.115l-7.809-6.988a.816.816,0,0,0-1.086,1.219l7.217,6.451-7.187,6.729a.818.818,0,0,0-.036,1.153.833.833,0,0,0,.6.259.816.816,0,0,0,.555-.217l7.3-6.825,1.979,1.768a.813.813,0,0,0,1.086-.006l2.034-1.822,7.254,6.891a.817.817,0,0,0,1.153-.03.818.818,0,0,0-.03-1.153Z" transform="translate(-52.388 -105.816)" fill="#d51b91"/></svg>