<svg xmlns="http://www.w3.org/2000/svg" xmlns:xlink="http://www.w3.org/1999/xlink" width="17.139" height="17.138" viewBox="0 0 17.139 17.138"><defs><clipPath id="a"><path d="M0,8.569a8.569,8.569,0,0,0,8.569,8.569h0a8.569,8.569,0,0,0,8.57-8.569h0A8.57,8.57,0,0,0,8.569,0h0A8.569,8.569,0,0,0,0,8.569Z" fill="none"/></clipPath></defs><g transform="translate(-0.019 -0.032)"><path d="M0,8.569a8.569,8.569,0,0,0,8.569,8.569h0a8.569,8.569,0,0,0,8.57-8.569h0A8.57,8.57,0,0,0,8.569,0h0A8.569,8.569,0,0,0,0,8.569Z" transform="translate(0.019 0.032)" fill="none"/><g transform="translate(0.019 0.032)" clip-path="url(#a)"><path d="M0,17.858H29.285V0H0Z" transform="translate(-6.965 -0.215)" fill="#04247b"/><path d="M0,.877H.749L1,0l.233.865h.8l-.628.593.223.865-.618-.545-.628.556.233-.877Z" transform="translate(10.61 6.234)" fill="#cb142a"/><path d="M.43,2.642v0l.265-1L.1,1.086,0,.989H.847L1.133,0,1.4.977h.9l-.706.667.253.983-.7-.615L.431,2.64ZM.257,1.1.8,1.6l-.2.757.545-.482.537.472L1.485,1.6l.551-.521h-.7L1.13.333.909,1.1Z" transform="translate(10.482 6.068)" fill="#fff"/><path d="M0,.919H.785L1.05,0l.244.906h.838l-.658.621.233.906-.646-.57L.4,2.445l.244-.918Z" transform="translate(12.347 11.035)" fill="#cb142a"/><path d="M.451,2.765v0L.728,1.721.107,1.137,0,1.037H.888L1.187,0l.275,1.023H2.4l-.739.7L1.928,2.75,1.2,2.105l-.744.659ZM.27,1.149l.566.531-.211.792.57-.5.561.494-.2-.781.576-.544H1.4L1.184.348l-.231.8Z" transform="translate(12.212 10.861)" fill="#fff"/><path d="M0,.825H.7L.942,0,1.16.813h.752l-.59.557.21.813-.58-.512-.59.523L.58,1.37Z" transform="translate(13.51 3.229)" fill="#cb142a"/><path d="M.4,2.481v0l.249-.936L.1,1.02,0,.93H.8L1.064,0l.247.917h.842l-.662.625.238.924-.657-.578-.668.591ZM.243,1.03l.508.477-.189.711.511-.452.5.443-.181-.7.517-.488h-.66L1.062.312.854,1.03Z" transform="translate(13.389 3.074)" fill="#fff"/><path d="M0,.773H.66L.884,0l.2.762h.7l-.553.522.2.762L.892,1.568l-.553.49.205-.774Z" transform="translate(16.99 5.284)" fill="#cb142a"/><path d="M.379,2.326v0l.233-.878L.09.955,0,.872H.746L1,0l.232.86H2.02L1.4,1.447l.223.867-.616-.542L.38,2.325ZM.228.965.7,1.413l-.177.665.48-.424.473.416-.169-.658L1.794.954h-.62L1,.292.8.965Z" transform="translate(16.876 5.139)" fill="#fff"/><path d="M0,8.978H14.612V0H0Z" transform="translate(-6.952 -0.215)" fill="#04247b"/><path d="M12.963,0,8.512,2.753,0,7.991v.995H1.65L14.612,1v-1L14.348,0Z" transform="translate(-6.952 -0.222)" fill="#fff"/><path d="M14.612,7.984,1.687,0H0V1.026L12.987,8.979h1.625Z" transform="translate(-6.953 -0.215)" fill="#fff"/><path d="M14.612,3.008H0V0L14.612.015Z" transform="translate(-6.953 2.771)" fill="#fff"/><path d="M0,0V8.978H2.436L2.424,0Z" transform="translate(-0.858 -0.215)" fill="#fff"/><path d="M14.612,0H0V1.781L14.612,1.8Z" transform="translate(-6.953 3.385)" fill="#e5173a"/><path d="M4.9,0,0,3H1.12l4.864-3L5.72,0Z" transform="translate(1.675 -0.222)" fill="#e5173a"/><path d="M1.461,0,1.449,8.978H0L.012,0Z" transform="translate(-0.383 -0.215)" fill="#e5173a"/><path d="M0,0,4.828,2.985V2.3L1.059,0Z" transform="translate(2.832 5.779)" fill="#e5173a"/></g></g></svg>