<svg xmlns="http://www.w3.org/2000/svg" width="22.213" height="22.2" viewBox="0 0 22.213 22.2"><g transform="translate(0.106 0.1)"><path d="M306.43,260a.43.43,0,1,0,.43.43A.43.43,0,0,0,306.43,260Zm0,0" transform="translate(-292.851 -248.829)" fill="#343a4f"/><path d="M4.391,15.889.094,21.3A.43.43,0,0,0,.43,22h21.14a.43.43,0,0,0,.337-.7l-4.3-5.414a.43.43,0,0,0-.337-.163H13.51l3.213-5.04a6.875,6.875,0,1,0-11.446,0l3.213,5.04H4.727a.43.43,0,0,0-.337.163Zm-1.6,3.4h2.6L3.918,21.14H1.32Zm6.253-2.707,1.178,1.848H7.164L8.63,16.585Zm3.923,0h.409l1.466,1.848H11.784Zm2.557,2.707,1.466,1.848H5.015l1.466-1.848Zm2.563,1.848-1.466-1.848h2.6l1.466,1.848Zm.45-2.707h-2.6l-1.466-1.848h2.6ZM6,10.213a6.015,6.015,0,1,1,10.011,0L16,10.22l-5,7.843L6,10.22l0-.008Zm1.538,6.373L6.067,18.433h-2.6l1.466-1.848Zm0,0" fill="#343a4f" stroke="#343a4f" stroke-width="0.2"/><path d="M160.3,68.594a4.3,4.3,0,1,0-4.3-4.3A4.3,4.3,0,0,0,160.3,68.594Zm0-7.734a3.437,3.437,0,1,1-3.437,3.437A3.441,3.441,0,0,1,160.3,60.859Zm0,0" transform="translate(-149.296 -57.422)" fill="#343a4f"/><path d="M248.236,292.749a.43.43,0,0,0-.59.146l-1.588,2.635a.43.43,0,1,0,.736.444l1.588-2.635A.43.43,0,0,0,248.236,292.749Zm0,0" transform="translate(-235.426 -280.112)" fill="#343a4f"/></g></svg>