<svg xmlns="http://www.w3.org/2000/svg" width="23" height="23" viewBox="0 0 23 23"><g transform="translate(-313.5 -15)"><rect width="23" height="23" rx="2" transform="translate(313.5 15)" fill="#2c43a7" opacity="0.05"/><g transform="translate(319.718 21.218)"><g transform="translate(-1 -1)"><g transform="translate(0 0)"><path d="M10.906,9.9H10.3V-.8a.191.191,0,0,0-.2-.2H.009a.191.191,0,0,0-.2.2V9.9H-.8a.191.191,0,0,0-.2.2v.807a.191.191,0,0,0,.2.2h11.7a.191.191,0,0,0,.2-.2V10.1A.191.191,0,0,0,10.906,9.9ZM.211-.6H9.9V9.9H6.87V7.677a.191.191,0,0,0-.2-.2H3.44a.191.191,0,0,0-.2.2V9.9H.211ZM3.641,9.9V7.879H4.852V9.9ZM5.256,7.879H6.466V9.9H5.256ZM10.7,10.7H-.6v-.4H10.7v.4Z" transform="translate(1 1)" fill="#00a2ff" stroke="#00a2ff" stroke-width="0.2"/><path d="M84.751,40.967H83.137a.191.191,0,0,0-.2.2V42.38a.191.191,0,0,0,.2.2h1.614a.191.191,0,0,0,.2-.2V41.169A.191.191,0,0,0,84.751,40.967Zm-.2,1.211H83.339v-.807h1.211Z" transform="translate(-80.917 -39.394)" fill="#00a2ff"/><path d="M84.751,133.295H83.137a.191.191,0,0,0-.2.2v1.211a.191.191,0,0,0,.2.2h1.614a.191.191,0,0,0,.2-.2V133.5A.191.191,0,0,0,84.751,133.295Zm-.2,1.211H83.339V133.7h1.211Z" transform="translate(-80.917 -128.939)" fill="#00a2ff"/><path d="M209.038,134.91h1.614a.191.191,0,0,0,.2-.2V133.5a.191.191,0,0,0-.2-.2h-1.614a.191.191,0,0,0-.2.2v1.211A.191.191,0,0,0,209.038,134.91Zm.2-1.211h1.211v.807H209.24Z" transform="translate(-203.791 -128.94)" fill="#00a2ff"/><path d="M334.94,134.91h1.614a.191.191,0,0,0,.2-.2V133.5a.191.191,0,0,0-.2-.2H334.94a.191.191,0,0,0-.2.2v1.211A.191.191,0,0,0,334.94,134.91Zm.2-1.211h1.211v.807h-1.211Z" transform="translate(-326.666 -128.94)" fill="#00a2ff"/><path d="M209.038,42.582h1.614a.191.191,0,0,0,.2-.2V41.17a.191.191,0,0,0-.2-.2h-1.614a.191.191,0,0,0-.2.2v1.211A.191.191,0,0,0,209.038,42.582Zm.2-1.211h1.211v.807H209.24Z" transform="translate(-203.791 -39.395)" fill="#00a2ff"/><path d="M334.94,42.582h1.614a.191.191,0,0,0,.2-.2V41.17a.191.191,0,0,0-.2-.2H334.94a.191.191,0,0,0-.2.2v1.211A.191.191,0,0,0,334.94,42.582Zm.2-1.211h1.211v.807h-1.211Z" transform="translate(-326.666 -39.395)" fill="#00a2ff"/><path d="M192.252,318.356h2.422a.2.2,0,0,0,0-.4h-2.422a.2.2,0,0,0,0,.4Z" transform="translate(-187.409 -310.284)" fill="#00a2ff"/></g></g></g></g></svg>