<svg xmlns="http://www.w3.org/2000/svg" width="23" height="23" viewBox="0 0 23 23"><g transform="translate(-313.5 -15)"><rect width="23" height="23" rx="2" transform="translate(313.5 15)" fill="#2c43a7" opacity="0.05"/><g transform="translate(317.116 18.616)"><path d="M7.964,0a7.964,7.964,0,1,0,7.964,7.964A7.973,7.973,0,0,0,7.964,0Zm0,14.233a6.269,6.269,0,1,1,6.27-6.269A6.277,6.277,0,0,1,7.964,14.233Z" fill="#00a2ff"/><path d="M48.956,21.789H45.377v-4.3a.656.656,0,0,0-1.311,0v4.959a.656.656,0,0,0,.656.656h4.235a.656.656,0,1,0,0-1.311Z" transform="translate(-36.842 -14.071)" fill="#00a2ff"/></g></g></svg>