<svg xmlns="http://www.w3.org/2000/svg" width="23" height="23" viewBox="0 0 23 23"><g transform="translate(-313.5 -15)"><rect width="23" height="23" rx="2" transform="translate(313.5 15)" fill="#2c43a7" opacity="0.05"/><g transform="translate(219.08 17.598)"><path d="M124.487,170.651a.143.143,0,0,0-.117-.261,3.742,3.742,0,0,0-1.819,3.1.143.143,0,0,0,.124.16h.019a.143.143,0,0,0,.142-.125,4.252,4.252,0,0,1,.936-2.282A2.393,2.393,0,0,1,124.487,170.651Z" transform="translate(-20.127 -164.64)" fill="#00a2ff"/><path d="M109.574,12.013c-.124-.068-.261-.132-.407-.2a3.521,3.521,0,0,1-1.44-1.022l2.7-2.28a.791.791,0,0,0,.182-.989.859.859,0,0,0,.205-.456.763.763,0,0,0-.168-.593l-.278-.33a.791.791,0,0,0-1.115-.095l-2.331,2c-.007-.227-.023-.494-.055-.767a3,3,0,0,0-.5-1.556,2.446,2.446,0,0,0,1.3-4.12L107.519.4a.45.45,0,0,0-.5-.393l-3.047.364a.451.451,0,0,0-.393.5l.161,1.348a2.444,2.444,0,0,0,.436,2.814,3.882,3.882,0,0,0-.877.744,5.606,5.606,0,0,0-1.31,3.072,13.805,13.805,0,0,0-.036,3.686l.009.047a1.738,1.738,0,0,0,1.092,1.554,2.185,2.185,0,0,0-.92.493,1.339,1.339,0,0,0-.412,1v.654a.143.143,0,0,0,.143.143h0l6.993-.013a3.023,3.023,0,0,0,1.7-.433,1.7,1.7,0,0,0,.733-1.475C111.291,13.154,110.9,12.739,109.574,12.013Zm.843-4.064a.5.5,0,0,1-.178.343l-3.064,2.59a.5.5,0,0,1-.711-.061l-2.5-2.974a.5.5,0,0,1-.009-.639l1.347,1.68a.143.143,0,0,0,.223-.179l-1.357-1.693.188-.158a.5.5,0,0,1,.711.061l1.8,2.142a.143.143,0,0,0,.2.017l2.244-1.889a.5.5,0,0,1,.711.061l.278.33A.5.5,0,0,1,110.418,7.949Zm-.982-1.683a.5.5,0,0,1,.711.061l.278.33a.479.479,0,0,1,.1.374.572.572,0,0,1-.1.257l-.186-.221a.791.791,0,0,0-1.114-.1l-2.134,1.8-.072-.086c0-.047,0-.138,0-.262ZM104,.652l3.047-.364h.02a.164.164,0,0,1,.162.144l.134,1.12-3.358.527-.048-.4,1.107-.15a.143.143,0,0,0-.038-.284l-1.1.149-.067-.562A.164.164,0,0,1,104,.652Zm-.183,2.162a2.171,2.171,0,0,1,.159-.442l3.5-.549a2.171,2.171,0,0,1,.543,2,2.159,2.159,0,0,1-4.2-1.01Zm.129,11.166c-1.381.071-1.566-.745-1.708-1.457l-.009-.047a13.509,13.509,0,0,1,.039-3.593A5.331,5.331,0,0,1,103.5,5.976a3.5,3.5,0,0,1,.9-.744,2.43,2.43,0,0,0,.95.465,2.462,2.462,0,0,0,.577.069h.031c.557.232.681,1.714.684,2.584l-1.358-1.613a.791.791,0,0,0-1.114-.1l-.33.278a.791.791,0,0,0-.1,1.114l2.5,2.974a.789.789,0,0,0,.605.281h0a.791.791,0,0,0,.509-.186l.149-.126a3.827,3.827,0,0,0,1.537,1.1c.141.067.275.13.392.193.254.139.468.263.649.382h-.45a.143.143,0,0,0,0,.286h.829a1.631,1.631,0,0,1,.269.3h-1.284a.143.143,0,0,0,0,.286h1.43a2.843,2.843,0,0,1,.124.978c0,1.411-1.345,1.621-2.147,1.621l-6.85.012v-.507h1.432a.143.143,0,0,0,0-.286h-1.4a1.022,1.022,0,0,1,.294-.51,2.754,2.754,0,0,1,1.649-.565,16.928,16.928,0,0,1,3.075-.021,1.012,1.012,0,0,0,.177.018.143.143,0,1,0,0-.286.745.745,0,0,1-.131-.014A17.858,17.858,0,0,0,103.95,13.98Z" fill="#00a2ff" stroke="#00a2ff" stroke-width="0.2"/><path d="M172.784,455.55h-1.65a.143.143,0,0,0,0,.286h1.65a.143.143,0,0,0,0-.286Z" transform="translate(-66.936 -440.21)" fill="#00a2ff"/></g></g></svg>