<svg xmlns="http://www.w3.org/2000/svg" width="23" height="23" viewBox="0 0 23 23"><g transform="translate(-313.5 -15)"><rect width="23" height="23" rx="2" transform="translate(313.5 15)" fill="#2c43a7" opacity="0.05"/><g transform="translate(317.602 18.687)"><path d="M168.458,234.787h5.363a.731.731,0,0,0,.731-.731V231.13a.731.731,0,0,0-.731-.731h-5.363a.732.732,0,0,0-.731.731v2.925A.731.731,0,0,0,168.458,234.787Zm-.244-3.657a.244.244,0,0,1,.244-.244h5.363a.244.244,0,0,1,.244.244v2.925a.244.244,0,0,1-.244.244h-5.363a.244.244,0,0,1-.244-.244Zm0,0" transform="translate(-162.934 -223.817)" fill="#00a2ff"/><path d="M1.219,14.625A1.214,1.214,0,0,0,2,14.34l.312-.262a1.219,1.219,0,0,0,1.016.548h8.045a1.22,1.22,0,0,0,1.219-1.219V5.119A1.218,1.218,0,0,0,11.374,3.9a.732.732,0,0,1-.687-.488h.629a.79.79,0,0,0,.789-.789V1.333A1.336,1.336,0,0,0,10.772,0H5.638A1.336,1.336,0,0,0,4.3,1.333v1.29a.79.79,0,0,0,.789.789h.629a.719.719,0,0,1-.687.488A1.22,1.22,0,0,0,3.817,5.119v5.75a1.219,1.219,0,0,0-1.515.038L.435,12.475a1.218,1.218,0,0,0,.785,2.15ZM2.6,13.408a.731.731,0,0,1,.731-.731H4.3v1.463H3.329a.731.731,0,0,1-.731-.731Zm2.438.731H4.792V12.676h.975a.731.731,0,0,1,0,1.463ZM4.792,2.624V1.334A.848.848,0,0,1,5.638.487h5.133a.848.848,0,0,1,.846.846v1.29a.3.3,0,0,1-.3.3H5.093a.3.3,0,0,1-.3-.3ZM4.3,5.119a.731.731,0,0,1,.731-.731A1.216,1.216,0,0,0,6.23,3.412H10.18a1.221,1.221,0,0,0,1.195.975.73.73,0,0,1,.731.731v8.289a.731.731,0,0,1-.731.731H6.736a1.206,1.206,0,0,0,.25-.731,1.22,1.22,0,0,0-1.219-1.219H4.25A1.212,1.212,0,0,0,4.3,11.84ZM2.616,11.281a.731.731,0,0,1,1.029.09.72.72,0,0,1,.172.47.737.737,0,0,1-.089.349h-.4a1.209,1.209,0,0,0-.806.312L1.9,11.88ZM.748,12.848l.78-.654.7.7a1.106,1.106,0,0,0-.1.7l-.442.37a.73.73,0,1,1-.94-1.119Zm0,0" fill="#00a2ff"/><path d="M202.107,265.023h.488a.244.244,0,1,0,0-.488h-.488a.244.244,0,0,0,0,.488Zm0,0" transform="translate(-196.096 -256.979)" fill="#00a2ff"/><path d="M253.306,265.023h2.925a.244.244,0,0,0,0-.488h-2.925a.244.244,0,0,0,0,.488Zm0,0" transform="translate(-245.833 -256.979)" fill="#00a2ff"/><path d="M202.107,333.288h.488a.244.244,0,1,0,0-.488h-.488a.244.244,0,0,0,0,.488Zm0,0" transform="translate(-196.096 -323.294)" fill="#00a2ff"/><path d="M256.232,332.8h-2.925a.244.244,0,0,0,0,.488h2.925a.244.244,0,0,0,0-.488Zm0,0" transform="translate(-245.833 -323.294)" fill="#00a2ff"/><path d="M339.126,298.668h-.488a.244.244,0,1,0,0,.488h.488a.244.244,0,0,0,0-.488Zm0,0" transform="translate(-328.727 -290.136)" fill="#00a2ff"/><path d="M202.107,299.155h2.925a.244.244,0,0,0,0-.488h-2.925a.244.244,0,0,0,0,.488Zm0,0" transform="translate(-196.096 -290.136)" fill="#00a2ff"/><path d="M193.816,42.912a.244.244,0,0,0-.488,0v.731a.244.244,0,0,0,.488,0Zm0,0" transform="translate(-187.805 -41.449)" fill="#00a2ff"/><path d="M227.7,43.887a.244.244,0,0,0,.244-.244v-.731a.244.244,0,0,0-.488,0v.731A.244.244,0,0,0,227.7,43.887Zm0,0" transform="translate(-220.962 -41.449)" fill="#00a2ff"/><path d="M261.838,43.887a.244.244,0,0,0,.244-.244v-.731a.244.244,0,0,0-.488,0v.731A.244.244,0,0,0,261.838,43.887Zm0,0" transform="translate(-254.12 -41.449)" fill="#00a2ff"/><path d="M295.971,43.887a.244.244,0,0,0,.244-.244v-.731a.244.244,0,0,0-.488,0v.731A.244.244,0,0,0,295.971,43.887Zm0,0" transform="translate(-287.278 -41.449)" fill="#00a2ff"/><path d="M330.107,43.887a.244.244,0,0,0,.244-.244v-.731a.244.244,0,0,0-.488,0v.731A.244.244,0,0,0,330.107,43.887Zm0,0" transform="translate(-320.44 -41.449)" fill="#00a2ff"/><path d="M364.24,43.887a.244.244,0,0,0,.244-.244v-.731a.244.244,0,0,0-.488,0v.731A.244.244,0,0,0,364.24,43.887Zm0,0" transform="translate(-353.597 -41.449)" fill="#00a2ff"/></g></g></svg>