<svg xmlns="http://www.w3.org/2000/svg" width="23" height="23" viewBox="0 0 23 23"><g transform="translate(-249.706 -18)"><rect width="23" height="23" rx="2" transform="translate(249.706 18)" fill="#2c43a7" opacity="0.05"/><g transform="translate(254.409 22.703)"><path d="M14.23.253,14.117,0H.477L.364.253A4.876,4.876,0,0,0,0,2.166,4.729,4.729,0,0,0,.364,4.051L.477,4.3H.884v10.29h.855V12.855h.855v1.739h.855V12.855H4.3v1.739h.855V12.855h.855v1.739h.855V12.855h.855v1.739H8.58V12.855h.855v1.739h.855V12.855h.855v1.739H12V12.855h.855v1.739h.855V4.3h.407l.113-.253a4.729,4.729,0,0,0,.364-1.885A4.877,4.877,0,0,0,14.23.253ZM12.855,12H1.739V4.3h.855v6.841H12V4.3h.855ZM4.127,6.442,7.3,9.612l3.17-3.17L8.329,4.3h2.816V10.29h-7.7V4.3H6.265ZM7.3,4.481,9.258,6.442,7.3,8.4,5.336,6.442Zm6.25-1.032H1.047A4.133,4.133,0,0,1,.855,2.166,4.327,4.327,0,0,1,1.048.855h12.5a4.327,4.327,0,0,1,.192,1.311,4.134,4.134,0,0,1-.192,1.283Zm0,0" fill="#00a2ff"/><path d="M151,301h.855v.855H151Zm0,0" transform="translate(-146.696 -292.42)" fill="#00a2ff"/><path d="M331,301h.855v.855H331Zm0,0" transform="translate(-321.565 -292.42)" fill="#00a2ff"/><path d="M241,211h.855v.855H241Zm0,0" transform="translate(-234.131 -204.986)" fill="#00a2ff"/></g></g></svg>