<svg xmlns="http://www.w3.org/2000/svg" width="23" height="23" viewBox="0 0 23 23"><g transform="translate(-341 -667)"><rect width="23" height="23" rx="2" transform="translate(341 667)" fill="#2c43a7" opacity="0.05"/><path d="M1153.455,101.384a2.683,2.683,0,0,1-2.147-1.077l-5.949,3.562a2.08,2.08,0,0,1,.02.21c0,.086-.02.168-.027.252l5.923,3.567a2.683,2.683,0,1,1-.512,1.563c0-.1.02-.2.027-.293l-5.936-3.511a2.692,2.692,0,1,1-.04-3.215l5.976-3.492c-.007-.085-.027-.169-.027-.257a2.692,2.692,0,1,1,2.692,2.692Zm0,9.423a1.346,1.346,0,1,0-1.346-1.346A1.346,1.346,0,0,0,1153.455,110.807Zm-10.769-8.076a1.346,1.346,0,1,0,1.346,1.346A1.346,1.346,0,0,0,1142.686,102.73Zm10.769-5.384a1.346,1.346,0,1,0,1.346,1.346A1.346,1.346,0,0,0,1153.455,97.346Z" transform="translate(-795.802 574.18)" fill="#00a2ff" fill-rule="evenodd"/></g></svg>