<svg xmlns="http://www.w3.org/2000/svg" width="23" height="23" viewBox="0 0 23 23"><g transform="translate(-313.5 -15)"><rect width="23" height="23" rx="2" transform="translate(313.5 15)" fill="#2c43a7" opacity="0.05"/><g transform="translate(318.86 18.001)"><path d="M209.409,224.644a.265.265,0,1,1-.265-.265A.265.265,0,0,1,209.409,224.644Zm0,0" transform="translate(-201.053 -216.491)" fill="#00a2ff"/><path d="M178.536,161.129a.264.264,0,0,0,.136-.49,2.508,2.508,0,0,0-2.589,0,.264.264,0,1,0,.272.452,1.983,1.983,0,0,1,2.046,0A.262.262,0,0,0,178.536,161.129Zm0,0" transform="translate(-169.287 -154.644)" fill="#00a2ff"/><path d="M193.891,193.084a.264.264,0,0,0,.136-.49,1.384,1.384,0,0,0-1.428,0,.264.264,0,0,0,.271.452.858.858,0,0,1,.885,0A.261.261,0,0,0,193.891,193.084Zm0,0" transform="translate(-185.223 -185.632)" fill="#00a2ff"/><path d="M13.445,2.254H7.227V1.391A1.393,1.393,0,0,0,5.836,0H1.891A1.392,1.392,0,0,0,.5,1.391V13.227a1.392,1.392,0,0,0,1.391,1.391h3.4v1.146a.264.264,0,0,0,.527,0V10.127A.582.582,0,0,1,6.4,9.545h.3v.3a.828.828,0,0,0,.827.827H8.654a.828.828,0,0,0,.827-.827v-.3h.3a.582.582,0,0,1,.582.582V16.89a.583.583,0,0,1-.582.582H6.4a.582.582,0,0,1-.582-.582.264.264,0,1,0-.527,0A1.11,1.11,0,0,0,6.4,18H9.781a1.11,1.11,0,0,0,1.109-1.109V10.127A1.11,1.11,0,0,0,9.781,9.018H7.227V8.154a.264.264,0,1,0-.527,0v.863H6.4a1.11,1.11,0,0,0-1.109,1.109V14.09h-3.4a.864.864,0,0,1-.863-.863V1.391A.865.865,0,0,1,1.891.527H5.836a.864.864,0,0,1,.863.863v.864H5.8a2.236,2.236,0,1,0,0,2.218h.9v.582a.264.264,0,0,0,.527,0V4.473h6.218a1.109,1.109,0,1,0,0-2.218ZM8.954,9.845a.3.3,0,0,1-.3.3H7.527a.3.3,0,0,1-.3-.3v-.3H8.954Zm4.491-5.9H4.991a.264.264,0,1,0,0,.527H5.16a1.709,1.709,0,1,1,0-2.218h-1.3a1.109,1.109,0,0,0,0,2.218.264.264,0,1,0,0-.527.582.582,0,0,1,0-1.164h9.581a.582.582,0,0,1,0,1.164Zm0,0" fill="#00a2ff"/><path d="M73.472,194.887a.264.264,0,0,0,.264-.264V194a.827.827,0,1,0-.527,0v.625A.264.264,0,0,0,73.472,194.887Zm0-1.973a.3.3,0,1,1-.3.3A.3.3,0,0,1,73.472,192.914Zm0,0" transform="translate(-69.608 -185.623)" fill="#00a2ff"/><path d="M185.98,328.66a.264.264,0,0,0-.264.264v2.836H185.7a.828.828,0,0,0-.827.827v.282a.828.828,0,0,0,.827.827h.564a.828.828,0,0,0,.827-.827v-.282a.828.828,0,0,0-.827-.827h-.018v-2.009h.3a.264.264,0,1,0,0-.527h-.3v-.3A.264.264,0,0,0,185.98,328.66Zm.582,3.927v.282a.3.3,0,0,1-.3.3H185.7a.3.3,0,0,1-.3-.3v-.282a.3.3,0,0,1,.3-.3h.564A.3.3,0,0,1,186.562,332.587Zm0,0" transform="translate(-177.889 -317.106)" fill="#00a2ff"/></g></g></svg>