<svg xmlns="http://www.w3.org/2000/svg" width="23" height="23" viewBox="0 0 23 23"><g transform="translate(-249.706 -18)"><rect width="23" height="23" rx="2" transform="translate(249.706 18)" fill="#2c43a7" opacity="0.05"/><g transform="translate(253.836 22.13)"><g transform="translate(0)"><rect width="15.74" height="15.74" fill="none"/><text transform="matrix(-1, 0, 0, 1, 8.461, 10.461)" fill="none" font-size="7" font-family="SegoeUI, Segoe UI"><tspan x="-3.773" y="0">24</tspan></text><g transform="translate(1.211 0.85)"><path d="M13.334,4.3a1.2,1.2,0,0,0-1.7,0l-1.2,1.206V2.334a1.193,1.193,0,0,0-.352-.849L8.945.352A1.193,1.193,0,0,0,8.1,0H1.219a1.2,1.2,0,0,0-1.2,1.2V12.468a1.2,1.2,0,0,0,1.2,1.2H9.229a1.2,1.2,0,0,0,1.2-1.2V8.907L13.334,6A1.2,1.2,0,0,0,13.334,4.3ZM8.027.8a.437.437,0,0,1,.352.117L9.512,2.051a.437.437,0,0,1,.117.352h-1.6Zm1.6,11.667a.4.4,0,0,1-.4.4H1.219a.4.4,0,0,1-.4-.4V1.2a.4.4,0,0,1,.4-.4H7.226v2a.4.4,0,0,0,.4.4h2V6.309L8.447,7.492l-.566.566a.4.4,0,0,0-.1.157l-.566,1.7a.4.4,0,0,0,.507.507l1.7-.566a.4.4,0,0,0,.157-.1l.049-.049v2.759Zm-.9-4.127.566.566-.216.216-.849.283.283-.85Zm1.133,0L9.3,7.774l1.925-1.927.566.566Zm2.9-2.906-.413.413-.566-.566.413-.413a.4.4,0,1,1,.566.566Z" transform="translate(-0.018)" fill="#00a2ff"/><g transform="translate(1.602 4.005)"><path d="M66.025,150H60.418a.4.4,0,1,0,0,.8h5.606a.4.4,0,1,0,0-.8Z" transform="translate(-60.018 -150)" fill="#00a2ff"/></g><g transform="translate(1.602 5.606)"><path d="M64.423,210h-4a.4.4,0,0,0,0,.8h4a.4.4,0,0,0,0-.8Z" transform="translate(-60.018 -210)" fill="#00a2ff"/></g><g transform="translate(1.602 7.208)"><path d="M64.423,270h-4a.4.4,0,1,0,0,.8h4a.4.4,0,1,0,0-.8Z" transform="translate(-60.018 -270)" fill="#00a2ff"/></g><g transform="translate(1.602 8.81)"><path d="M64.423,330h-4a.4.4,0,0,0,0,.8h4a.4.4,0,0,0,0-.8Z" transform="translate(-60.018 -330)" fill="#00a2ff"/></g><g transform="translate(4.805 11.266)"><path d="M182.821,422h-2.4a.4.4,0,1,0,0,.8h2.4a.4.4,0,1,0,0-.8Z" transform="translate(-180.018 -422)" fill="#00a2ff"/></g></g></g></g></g></svg>