<svg xmlns="http://www.w3.org/2000/svg" width="23" height="23" viewBox="0 0 23 23"><g transform="translate(-249.706 -18)"><rect width="23" height="23" rx="2" transform="translate(249.706 18)" fill="#2c43a7" opacity="0.05"/><g transform="translate(254.35 18.73)"><g transform="translate(8.619 10.276)"><path d="M301.161,258.275a.553.553,0,1,1,.632-.547.287.287,0,1,0,.575,0,1.143,1.143,0,0,0-.92-1.089v-.149a.287.287,0,0,0-.575,0v.149a1.143,1.143,0,0,0-.92,1.089,1.168,1.168,0,0,0,1.207,1.122.553.553,0,1,1-.632.547.287.287,0,0,0-.575,0,1.143,1.143,0,0,0,.92,1.09v.124a.287.287,0,0,0,.575,0v-.124a1.143,1.143,0,0,0,.92-1.09A1.168,1.168,0,0,0,301.161,258.275Z" transform="translate(-299.954 -256.201)" fill="#00a2ff"/></g><g transform="translate(11.032 9.258)"><path d="M385.866,222.167a3.744,3.744,0,0,0-1.529-1.354.287.287,0,1,0-.249.518,3.164,3.164,0,0,1,1.425,4.333.287.287,0,1,0,.507.27,3.74,3.74,0,0,0-.154-3.768Z" transform="translate(-383.924 -220.785)" fill="#00a2ff"/></g><g transform="translate(9.971 8.92)"><g transform="translate(0 0)"><path d="M347.307,209h-.019a.287.287,0,0,0,0,.575h.018a.287.287,0,0,0,0-.575Z" transform="translate(-347 -209.001)" fill="#00a2ff"/></g></g><g transform="translate(6.092 10.75)"><path d="M214.37,277.467a3.164,3.164,0,0,1-1.425-4.333.287.287,0,0,0-.507-.27,3.737,3.737,0,0,0,1.683,5.121.287.287,0,1,0,.249-.518Z" transform="translate(-212.002 -272.711)" fill="#00a2ff"/></g><g transform="translate(9.091 15.816)"><g transform="translate(0 0)"><path d="M316.683,449h-.017a.287.287,0,1,0,0,.575h.019a.287.287,0,0,0,0-.575Z" transform="translate(-316.378 -448.999)" fill="#00a2ff"/></g></g><g transform="translate(0 3)"><g transform="translate(0 0)"><path d="M11.133,7.947A1.319,1.319,0,0,0,11,7.713h.748a1.322,1.322,0,0,0,0-2.644h-2.3A1.321,1.321,0,0,0,8.362,3H1.322a1.322,1.322,0,1,0,0,2.644h2.3a1.318,1.318,0,0,0,0,1.494H2.874a1.321,1.321,0,0,0-.821,2.356,1.319,1.319,0,0,0,0,2.069,1.319,1.319,0,0,0,0,2.069,1.321,1.321,0,0,0,.821,2.356H6.26a4.884,4.884,0,1,0,4.872-8.041Zm.62-2.3a.747.747,0,0,1,0,1.494H4.713a.747.747,0,0,1,0-1.494ZM1.322,5.069a.747.747,0,0,1,0-1.494h7.04a.747.747,0,1,1,0,1.494ZM2.874,7.713h7.04a.747.747,0,0,1,.326.075c-.136-.011-.273-.018-.412-.018A4.87,4.87,0,0,0,6.371,9.207h-3.5a.747.747,0,1,1,0-1.494Zm0,2.069H5.88a4.871,4.871,0,0,0-.739,1.494H2.874a.747.747,0,1,1,0-1.494Zm0,2.069H5.009a4.889,4.889,0,0,0-.018,1.494H2.874a.747.747,0,0,1,0-1.494Zm0,3.563a.747.747,0,1,1,0-1.494H5.109A4.866,4.866,0,0,0,5.8,15.414Zm6.954,1.552a4.31,4.31,0,1,1,4.31-4.31A4.315,4.315,0,0,1,9.828,16.966Z" transform="translate(0 -3)" fill="#00a2ff"/></g></g></g></g></svg>