<svg xmlns="http://www.w3.org/2000/svg" width="23" height="23" viewBox="0 0 23 23"><g transform="translate(-249.706 -18)"><rect width="23" height="23" rx="2" transform="translate(249.706 18)" fill="#2c43a7" opacity="0.05"/><g transform="translate(191.964 6.788)"><path d="M103.4,44H93.252a.246.246,0,0,0-.252.233V57.316a.251.251,0,0,0,.252.239H101a.239.239,0,0,0,.173-.074l2.39-2.494a.234.234,0,0,0,.06-.166V44.232A.224.224,0,0,0,103.4,44Zm-9.918.479h9.666V54.593H101a.24.24,0,0,0-.25.23v2.254H93.479Zm9.356,10.594-1.605,1.65v-1.65Z" transform="translate(-28.132 -28.131)" fill="#00a2ff"/><path d="M149.6,320.479h6.612a.239.239,0,0,0,0-.479H149.6a.239.239,0,0,0,0,.479Z" transform="translate(-82.806 -295.873)" fill="#00a2ff"/><path d="M153.43,374H149.6a.239.239,0,1,0,0,.479h3.83a.239.239,0,0,0,0-.479Z" transform="translate(-82.806 -348.257)" fill="#00a2ff"/><path d="M156.092,102.239a.239.239,0,0,0-.239-.239h-6.614a.239.239,0,0,0-.239.239v4.728a.239.239,0,0,0,.239.239h6.614a.239.239,0,0,0,.239-.239Zm-6.614.239h6.135v4.25h-6.135Z" transform="translate(-82.456 -84.396)" fill="#00a2ff"/><path d="M74.611,15.239A.239.239,0,0,0,74.371,15H64.227a.229.229,0,0,0-.227.239V28.323a.239.239,0,1,0,.479,0V15.479h9.893A.239.239,0,0,0,74.611,15.239Z" transform="translate(0 0)" fill="#00a2ff"/></g></g></svg>