<svg xmlns="http://www.w3.org/2000/svg" width="23" height="23" viewBox="0 0 23 23"><g transform="translate(-313.5 -15)"><rect width="23" height="23" rx="2" transform="translate(313.5 15)" fill="#2c43a7" opacity="0.05"/><g transform="translate(318.5 20)"><path d="M108.426,112.457a4.035,4.035,0,1,0,4.035-4.035A4.032,4.032,0,0,0,108.426,112.457Zm2.373-.447a.283.283,0,0,1,.176-.247v.506A.278.278,0,0,1,110.8,112.01Zm.154-.67v-.295a1.492,1.492,0,1,1,2.984,0v.287l-.023,0a.382.382,0,0,0-.131-.233c-.065-.072-.153-.164-.352-.377a.32.32,0,0,0-.41-.05,2.814,2.814,0,0,1-1.7.458.322.322,0,0,0-.323.2Zm2.962.412a.279.279,0,0,1,0,.518Zm-2.53.709v-.92a3.244,3.244,0,0,0,1.8-.489c.178.191.278.3.323.348v1.061a1.06,1.06,0,0,1-2.12,0Zm1.078,1.452a1.471,1.471,0,0,0,.5-.089v.143a.377.377,0,0,0,.2.332.991.991,0,0,1-1.432.01.386.386,0,0,0,.222-.347v-.129A1.605,1.605,0,0,0,112.463,113.912Zm-1.142.556.093.1a1.4,1.4,0,0,0,2.061,0l.1-.108,1.391.539h0c.006,0,.024.011.05.026a3.619,3.619,0,0,1-5.115,0c.025-.014.042-.022.048-.025h0Zm3.976.244a1.182,1.182,0,0,0-.173-.094l0,0-1.745-.676v-.352a1.452,1.452,0,0,0,.522-.895.689.689,0,0,0,.451-1.118v-.531a1.9,1.9,0,1,0-3.8,0v.545a.652.652,0,0,0-.154.42.69.69,0,0,0,.606.685,1.47,1.47,0,0,0,.55.918v.329l-.244.095-1.5.581,0,0a1.163,1.163,0,0,0-.173.094,3.624,3.624,0,1,1,5.671,0Zm0,0" transform="translate(-105.461 -105.458)" fill="#00a2ff" stroke="#00a2ff" stroke-width="0.2"/><path d="M271.519,5.394h-.905a0,0,0,0,1,0,0,5.669,5.669,0,0,0-.462-1.112,0,0,0,0,1,0,0l.641-.641a.637.637,0,0,0,0-.9l-1.369-1.369a.637.637,0,0,0-.9,0l-.641.641h0a5.661,5.661,0,0,0-1.112-.462,0,0,0,0,1,0,0V.637A.638.638,0,0,0,266.125,0h-.506a.205.205,0,1,0,0,.41h.506a.227.227,0,0,1,.227.227v.905a.415.415,0,0,0,.3.4,5.249,5.249,0,0,1,1.031.428.415.415,0,0,0,.49-.07l.641-.641a.227.227,0,0,1,.321,0L270.5,3.025a.227.227,0,0,1,0,.321l-.641.641a.415.415,0,0,0-.07.49,5.257,5.257,0,0,1,.428,1.031.415.415,0,0,0,.4.3h.905a.227.227,0,0,1,.227.227v.49a.205.205,0,0,0,.41,0v-.49a.638.638,0,0,0-.637-.637Zm0,0" transform="translate(-258.156)" fill="#00a2ff" stroke="#00a2ff" stroke-width="0.2"/><path d="M13.795,7.273a.205.205,0,0,0-.205.205v.49a.227.227,0,0,1-.227.227h-.905a.415.415,0,0,0-.4.3,5.255,5.255,0,0,1-.428,1.031.415.415,0,0,0,.07.49l.641.641a.227.227,0,0,1,0,.321l-1.369,1.369a.227.227,0,0,1-.321,0l-.641-.641a.415.415,0,0,0-.49-.07,5.25,5.25,0,0,1-1.031.428.415.415,0,0,0-.3.4v.905a.228.228,0,0,1-.227.227H6.032a.228.228,0,0,1-.227-.227v-.905a.415.415,0,0,0-.3-.4,5.249,5.249,0,0,1-1.031-.428.415.415,0,0,0-.49.07l-.641.641a.227.227,0,0,1-.321,0L1.656,10.975a.227.227,0,0,1,0-.321l.641-.641a.415.415,0,0,0,.07-.49,5.252,5.252,0,0,1-.428-1.031.415.415,0,0,0-.4-.3H.637A.227.227,0,0,1,.41,7.968V6.032A.227.227,0,0,1,.637,5.8h.905a.415.415,0,0,0,.4-.3,5.252,5.252,0,0,1,.428-1.031.415.415,0,0,0-.07-.49l-.641-.641a.227.227,0,0,1,0-.321L3.025,1.656a.227.227,0,0,1,.321,0l.641.641a.415.415,0,0,0,.49.07,5.254,5.254,0,0,1,1.031-.428.415.415,0,0,0,.3-.4V.637A.227.227,0,0,1,6.032.41h.474a.205.205,0,0,0,0-.41H6.032a.638.638,0,0,0-.637.637v.905a0,0,0,0,1,0,0,5.666,5.666,0,0,0-1.112.462h0l-.641-.641a.637.637,0,0,0-.9,0L1.366,2.735a.637.637,0,0,0,0,.9l.641.641a0,0,0,0,1,0,0,5.664,5.664,0,0,0-.462,1.112,0,0,0,0,1,0,0H.637A.638.638,0,0,0,0,6.032V7.968a.638.638,0,0,0,.637.637h.905a0,0,0,0,1,0,0,5.658,5.658,0,0,0,.462,1.112,0,0,0,0,1,0,0l-.641.641a.637.637,0,0,0,0,.9l1.369,1.369a.638.638,0,0,0,.9,0l.641-.641h0a5.666,5.666,0,0,0,1.112.462,0,0,0,0,1,0,0v.905A.638.638,0,0,0,6.032,14H7.968a.638.638,0,0,0,.637-.637v-.905a0,0,0,0,1,0,0,5.666,5.666,0,0,0,1.112-.462h0l.641.641a.638.638,0,0,0,.9,0l1.369-1.369a.637.637,0,0,0,0-.9l-.641-.641a0,0,0,0,1,0,0,5.667,5.667,0,0,0,.462-1.112,0,0,0,0,1,0,0h.906A.638.638,0,0,0,14,7.968v-.49a.2.2,0,0,0-.2-.205Zm0,0" transform="translate(0 0)" fill="#00a2ff" stroke="#00a2ff" stroke-width="0.2"/></g></g></svg>