<svg xmlns="http://www.w3.org/2000/svg" width="23.407" height="20.963" viewBox="0 0 23.407 20.963"><g transform="translate(0.5 -2.494)"><path d="M12.315,3.185a1.313,1.313,0,0,0-1.34.019.4.4,0,0,0-.056.04L5.044,8.215H.434A.433.433,0,0,0,0,8.648v8.238a.434.434,0,0,0,.434.434l4.6,0,5.872,5.394a.423.423,0,0,0,.07.052,1.313,1.313,0,0,0,1.34.019,1.354,1.354,0,0,0,.692-1.195V4.38A1.355,1.355,0,0,0,12.315,3.185Zm-.175,18.4a.5.5,0,0,1-.251.44.455.455,0,0,1-.434.011L5.637,16.694V14.719a.434.434,0,0,0-.867,0v1.733l-3.9,0V9.082h3.9v1.734a.434.434,0,0,0,.867,0V8.85l5.812-4.917a.453.453,0,0,1,.441.008.5.5,0,0,1,.251.44Z" fill="#fff" stroke="#fff" stroke-width="1"/><path d="M38.048,7.036a.434.434,0,1,0-.279.822,7.58,7.58,0,0,1,.01,14.355.434.434,0,0,0,.14.844.428.428,0,0,0,.14-.023,8.448,8.448,0,0,0-.011-16Z" transform="translate(-21.227 -2.267)" fill="#fff" stroke="#fff" stroke-width="0.7"/><path d="M36.78,18.149a5.879,5.879,0,0,0-4.227-5.62.434.434,0,0,0-.24.833,4.982,4.982,0,0,1,0,9.573.434.434,0,0,0,.12.85.441.441,0,0,0,.12-.017A5.879,5.879,0,0,0,36.78,18.149Z" transform="translate(-18.125 -5.382)" fill="#fff" stroke="#fff" stroke-width="0.2"/></g></svg>