<svg xmlns="http://www.w3.org/2000/svg" width="23" height="23" viewBox="0 0 23 23"><g transform="translate(-313.5 -15)"><rect width="23" height="23" rx="2" transform="translate(313.5 15)" fill="#2c43a7" opacity="0.05"/><g transform="translate(316.607 18.369)"><g transform="translate(1.656)"><path d="M12.27,14.092v-1.93h.965a1.691,1.691,0,0,0,1.689-1.689v-.241h-.965A1.691,1.691,0,0,0,12.27,11.92V9.749h.965a1.691,1.691,0,0,0,1.689-1.689V7.819h-.965A1.691,1.691,0,0,0,12.27,9.508V7.337h.965a1.691,1.691,0,0,0,1.689-1.689V5.407h-.965A1.691,1.691,0,0,0,12.27,7.1V5.507L12.5,5.28a1.7,1.7,0,0,0,0-2.4h0l-.468-.468-.468.468a1.7,1.7,0,0,0,0,2.4h0l.227.227V7.1A1.691,1.691,0,0,0,10.1,5.407H9.134v.241a1.691,1.691,0,0,0,1.689,1.689h.965V9.508A1.691,1.691,0,0,0,10.1,7.819H9.134v.241a1.691,1.691,0,0,0,1.689,1.689h.965V11.92A1.691,1.691,0,0,0,10.1,10.232H9.134v.241a1.691,1.691,0,0,0,1.689,1.689h.965v1.93H6v-1.93h.965a1.691,1.691,0,0,0,1.689-1.689v-.241H7.687A1.691,1.691,0,0,0,6,11.92V9.749h.965A1.691,1.691,0,0,0,8.652,8.061V7.819H7.687A1.691,1.691,0,0,0,6,9.508V7.337h.965A1.691,1.691,0,0,0,8.652,5.648V5.407H7.687A1.691,1.691,0,0,0,6,7.1V4.925h.965A1.691,1.691,0,0,0,8.652,3.236V2.995H7.687A1.691,1.691,0,0,0,6,4.683V3.095l.227-.227a1.7,1.7,0,0,0,0-2.4h0L5.757,0,5.289.468a1.7,1.7,0,0,0,0,2.4h0l.227.227V4.683A1.691,1.691,0,0,0,3.827,2.995H2.862v.241A1.691,1.691,0,0,0,4.551,4.925h.965V7.1A1.691,1.691,0,0,0,3.827,5.407H2.862v.241A1.691,1.691,0,0,0,4.551,7.337h.965V9.508A1.691,1.691,0,0,0,3.827,7.819H2.862v.241A1.691,1.691,0,0,0,4.551,9.749h.965V11.92a1.691,1.691,0,0,0-1.689-1.689H2.862v.241a1.691,1.691,0,0,0,1.689,1.689h.965v1.93H1.656v.482H16.13v-.482Zm1.689-3.377h.458a1.208,1.208,0,0,1-1.182.965h-.458A1.208,1.208,0,0,1,13.959,10.714Zm0-2.412h.458a1.208,1.208,0,0,1-1.182.965h-.458A1.208,1.208,0,0,1,13.959,8.3Zm0-2.412h.458a1.208,1.208,0,0,1-1.182.965h-.458A1.208,1.208,0,0,1,13.959,5.89Zm-3.136.965A1.208,1.208,0,0,1,9.641,5.89H10.1a1.208,1.208,0,0,1,1.182.965Zm0,2.412A1.208,1.208,0,0,1,9.641,8.3H10.1a1.208,1.208,0,0,1,1.182.965Zm0,2.412a1.208,1.208,0,0,1-1.182-.965H10.1a1.208,1.208,0,0,1,1.182.965Zm-3.136-.965h.458a1.208,1.208,0,0,1-1.182.965H6.5A1.208,1.208,0,0,1,7.687,10.714Zm0-2.412h.458a1.208,1.208,0,0,1-1.182.965H6.5A1.208,1.208,0,0,1,7.687,8.3Zm0-2.412h.458a1.208,1.208,0,0,1-1.182.965H6.5A1.208,1.208,0,0,1,7.687,5.89Zm0-2.412h.458a1.208,1.208,0,0,1-1.182.965H6.5A1.208,1.208,0,0,1,7.687,3.477Zm-3.136.965a1.208,1.208,0,0,1-1.182-.965h.458a1.208,1.208,0,0,1,1.182.965Zm0,2.412A1.208,1.208,0,0,1,3.369,5.89h.458a1.208,1.208,0,0,1,1.182.965Zm0,2.412A1.208,1.208,0,0,1,3.369,8.3h.458a1.208,1.208,0,0,1,1.182.965Zm0,2.412a1.208,1.208,0,0,1-1.182-.965h.458a1.208,1.208,0,0,1,1.182.965ZM5.757,2.654,5.63,2.527a1.215,1.215,0,0,1,0-1.718L5.757.682l.127.127a1.215,1.215,0,0,1,0,1.718Zm6.272,2.412L11.9,4.939a1.215,1.215,0,0,1,0-1.718l.127-.127.127.127a1.215,1.215,0,0,1,0,1.718Z" transform="translate(-1.656)" fill="#00a2ff"/></g></g></g></svg>