<svg xmlns="http://www.w3.org/2000/svg" width="23" height="23" viewBox="0 0 23 23"><g transform="translate(-313.5 -15)"><rect width="23" height="23" rx="2" transform="translate(313.5 15)" fill="#2c43a7" opacity="0.05"/><g transform="translate(318.409 18.913)"><g transform="translate(0.002 0)"><g transform="translate(0 0)"><path d="M290.156,197.555a.237.237,0,0,0,.318.1,20.258,20.258,0,0,1,2.091-.93.236.236,0,0,0-.143-.451,20.268,20.268,0,0,0-2.163.96A.236.236,0,0,0,290.156,197.555Z" transform="translate(-282.095 -190.831)" fill="#00a2ff"/><path d="M290.367,95.285a.236.236,0,0,0,.107-.026,20.259,20.259,0,0,1,2.091-.93.236.236,0,0,0-.143-.451,20.266,20.266,0,0,0-2.163.96.236.236,0,0,0,.108.447Z" transform="translate(-282.095 -91.268)" fill="#00a2ff"/><path d="M13.945,3.545a.236.236,0,0,0-.236.236V13a.71.71,0,0,1-.709.709H7.328v-.544a6.964,6.964,0,0,1,2.127-.4,12.19,12.19,0,0,1,3.47.461A.236.236,0,0,0,13.236,13V2.6a.236.236,0,0,0-.185-.231s-.185-.041-.5-.1a.236.236,0,0,0-.086.465l.3.057v9.892a13.346,13.346,0,0,0-3.309-.395,7.424,7.424,0,0,0-2.354.453,5.536,5.536,0,0,0-2.136-.453,15.925,15.925,0,0,0-3.545.4V2.782a15.555,15.555,0,0,1,3.545-.419,5.124,5.124,0,0,1,1.891.389v9.3a.236.236,0,0,0,.358.2,27.056,27.056,0,0,1,4.443-2.105.236.236,0,0,0,.162-.224V.236A.237.237,0,0,0,11.5.015,25.139,25.139,0,0,0,7.675,1.927a.236.236,0,1,0,.25.4A25.259,25.259,0,0,1,11.345.582V9.756a26.484,26.484,0,0,0-4.017,1.886V2.6A.237.237,0,0,0,7.2,2.388a5.472,5.472,0,0,0-2.233-.5,15.338,15.338,0,0,0-3.846.482A.236.236,0,0,0,.947,2.6V13a.236.236,0,0,0,.236.236.233.233,0,0,0,.065-.009,15.181,15.181,0,0,1,3.716-.463,5.112,5.112,0,0,1,1.891.39v.556H1.184A.71.71,0,0,1,.475,13V3.781a.236.236,0,1,0-.473,0V13a1.183,1.183,0,0,0,1.182,1.182H13A1.183,1.183,0,0,0,14.181,13V3.781A.236.236,0,0,0,13.945,3.545Z" transform="translate(-0.002 0)" fill="#00a2ff"/><path d="M290.156,146.355a.237.237,0,0,0,.318.1,20.258,20.258,0,0,1,2.091-.93.236.236,0,0,0-.143-.451,20.273,20.273,0,0,0-2.163.96A.236.236,0,0,0,290.156,146.355Z" transform="translate(-282.095 -141.049)" fill="#00a2ff"/><path d="M290.156,248.755a.237.237,0,0,0,.318.1,20.255,20.255,0,0,1,2.091-.93.236.236,0,0,0-.143-.451,20.267,20.267,0,0,0-2.163.96A.236.236,0,0,0,290.156,248.755Z" transform="translate(-282.095 -240.613)" fill="#00a2ff"/><path d="M88.7,153.775a7.5,7.5,0,0,0-3.187.112.236.236,0,0,0,.061.465.24.24,0,0,0,.061-.008,7.122,7.122,0,0,1,2.957-.109.236.236,0,1,0,.108-.46Z" transform="translate(-82.97 -149.389)" fill="#00a2ff"/><path d="M88.7,204.979a7.5,7.5,0,0,0-3.187.112.236.236,0,0,0,.061.465.241.241,0,0,0,.061-.008,7.122,7.122,0,0,1,2.957-.109.236.236,0,1,0,.108-.46Z" transform="translate(-82.97 -199.175)" fill="#00a2ff"/><path d="M290.156,299.955a.237.237,0,0,0,.318.1,20.261,20.261,0,0,1,2.091-.93.236.236,0,0,0-.143-.451,20.265,20.265,0,0,0-2.163.96A.236.236,0,0,0,290.156,299.955Z" transform="translate(-282.095 -290.395)" fill="#00a2ff"/><path d="M88.7,256.178a7.5,7.5,0,0,0-3.187.112.236.236,0,0,0,.061.465.239.239,0,0,0,.061-.008,7.122,7.122,0,0,1,2.957-.109.236.236,0,1,0,.108-.46Z" transform="translate(-82.97 -248.956)" fill="#00a2ff"/><path d="M88.7,358.575a7.5,7.5,0,0,0-3.187.112.236.236,0,0,0,.061.465.239.239,0,0,0,.061-.008,7.123,7.123,0,0,1,2.957-.109.236.236,0,1,0,.108-.46Z" transform="translate(-82.97 -348.518)" fill="#00a2ff"/><path d="M88.7,307.374a7.5,7.5,0,0,0-3.187.113.236.236,0,0,0,.061.465.24.24,0,0,0,.061-.008,7.121,7.121,0,0,1,2.957-.109.236.236,0,1,0,.108-.46Z" transform="translate(-82.97 -298.734)" fill="#00a2ff"/></g></g></g></g></svg>