<svg xmlns="http://www.w3.org/2000/svg" width="23" height="23" viewBox="0 0 23 23"><g transform="translate(-313.5 -15)"><rect width="23" height="23" rx="2" transform="translate(313.5 15)" fill="#2c43a7" opacity="0.05"/><g transform="translate(316.826 -105.337)"><g transform="translate(1.446 133.06)"><path d="M44.474,277.333a1.807,1.807,0,1,0,1.807,1.807A1.81,1.81,0,0,0,44.474,277.333Zm0,2.891a1.084,1.084,0,1,1,1.084-1.084A1.086,1.086,0,0,1,44.474,280.224Z" transform="translate(-42.667 -277.333)" fill="#00a2ff"/></g><g transform="translate(12.288 133.06)"><path d="M364.474,277.333a1.807,1.807,0,1,0,1.807,1.807A1.81,1.81,0,0,0,364.474,277.333Zm0,2.891a1.084,1.084,0,1,1,1.084-1.084A1.086,1.086,0,0,1,364.474,280.224Z" transform="translate(-362.667 -277.333)" fill="#00a2ff"/></g><g transform="translate(0 128)"><path d="M15.18,130.891h-.612a.99.99,0,0,1-.617-.217L11.1,128.4a1.817,1.817,0,0,0-1.129-.4H4.749a1.8,1.8,0,0,0-1.5.8l-.615.924a.99.99,0,0,1-.823.44A1.81,1.81,0,0,0,0,131.976v1.446a1.81,1.81,0,0,0,1.807,1.807.361.361,0,1,0,0-.723,1.086,1.086,0,0,1-1.084-1.084v-1.446a1.086,1.086,0,0,1,1.084-1.084,1.709,1.709,0,0,0,1.425-.763l.615-.923a1.083,1.083,0,0,1,.9-.483H9.974a1.091,1.091,0,0,1,.678.238l2.848,2.278a1.714,1.714,0,0,0,1.069.376h.611c1.06,0,1.446,1.081,1.446,1.807a1.05,1.05,0,0,1-1.084,1.084.361.361,0,0,0,0,.723,1.768,1.768,0,0,0,1.807-1.807A2.332,2.332,0,0,0,15.18,130.891Z" transform="translate(0 -128)" fill="#00a2ff"/></g><g transform="translate(4.337 134.506)"><path d="M136.313,320h-7.951a.361.361,0,0,0,0,.723h7.951a.361.361,0,1,0,0-.723Z" transform="translate(-128 -320)" fill="#00a2ff"/></g><g transform="translate(7.951 129.446)"><path d="M238.642,172.112h-3.253v-1.084a.361.361,0,1,0-.723,0v1.446a.362.362,0,0,0,.361.361h3.614a.361.361,0,1,0,0-.723Z" transform="translate(-234.666 -170.666)" fill="#00a2ff"/></g><g transform="translate(3.614 129.446)"><path d="M109.921,172.117h-2.307l.462-.922a.362.362,0,0,0-.647-.323l-.723,1.446a.361.361,0,0,0,.323.523h2.891a.361.361,0,0,0,0-.723Z" transform="translate(-106.668 -170.671)" fill="#00a2ff"/></g><g transform="translate(8.674 132.337)"><path d="M257.084,256h-.723a.361.361,0,0,0,0,.723h.723a.361.361,0,0,0,0-.723Z" transform="translate(-256 -256)" fill="#00a2ff"/></g></g></g></svg>