<svg xmlns="http://www.w3.org/2000/svg" width="23" height="23" viewBox="0 0 23 23"><g transform="translate(-313.5 -15)"><rect width="23" height="23" rx="2" transform="translate(313.5 15)" fill="#2c43a7" opacity="0.05"/><g transform="translate(317.231 -27.474)"><g transform="translate(0 48.096)"><g transform="translate(0 0)"><path d="M14.315,59.842h-.25v-6.52A2.04,2.04,0,0,0,15,51.6a.22.22,0,0,0-.029-.109l-1.744-3.052a.691.691,0,0,0-.6-.347H2.372a.691.691,0,0,0-.6.347L.029,51.5A.22.22,0,0,0,0,51.6a2.04,2.04,0,0,0,.94,1.717v6.52H.69a.22.22,0,0,0,0,.44H14.315a.22.22,0,0,0,0-.44ZM.455,51.824h.7a.22.22,0,0,0,0-.44H.6l1.556-2.723a.251.251,0,0,1,.217-.126H12.632a.251.251,0,0,1,.217.126l1.556,2.723h-.561a.22.22,0,0,0,0,.44h.7a1.6,1.6,0,0,1-3.171,0h1.527a.22.22,0,0,0,0-.44H2.1a.22.22,0,0,0,0,.44H3.626a1.6,1.6,0,0,1-3.171,0Zm10.453,0a1.6,1.6,0,0,1-3.171,0Zm-3.641,0a1.6,1.6,0,0,1-3.171,0Zm5.184,8.017H10.071v-.735H12.45Zm0-1.175H10.071V54.643H12.45Zm1.175,1.175H12.89V54.424a.22.22,0,0,0-.22-.22H9.851a.22.22,0,0,0-.22.22v5.418H1.379V53.534a2.038,2.038,0,0,0,2.482-1.009,2.04,2.04,0,0,0,3.641,0,2.04,2.04,0,0,0,3.641,0,2.038,2.038,0,0,0,2.482,1.009Z" transform="translate(0 -48.096)" fill="#00a2ff" stroke="#00a2ff" stroke-width="0.2"/></g></g><g transform="translate(2.732 54.65)"><g transform="translate(0 0)"><path d="M77.512,256.516H72.325a.18.18,0,0,0-.18.18v3.65a.18.18,0,0,0,.18.18h5.187a.18.18,0,0,0,.18-.18V256.7A.18.18,0,0,0,77.512,256.516Zm-.18,3.65H72.5v-3.291h4.828Z" transform="translate(-72.145 -256.516)" fill="#00a2ff"/></g></g></g></g></svg>