<svg xmlns="http://www.w3.org/2000/svg" width="16.771" height="16.771" viewBox="0 0 16.771 16.771"><path d="M222.535,343.22a.879.879,0,0,0,0,1.758.879.879,0,1,0,0-1.758Z" transform="translate(-214.406 -331.977)" fill="#fff"/><path d="M186.271,140c-1.541,0-2.249.913-2.249,1.53a.655.655,0,0,0,.685.651c.617,0,.365-.879,1.53-.879.571,0,1.028.251,1.028.776,0,.617-.639.971-1.016,1.29a2.09,2.09,0,0,0-.765,1.736c0,.594.16.765.628.765.559,0,.674-.251.674-.468a1.434,1.434,0,0,1,.639-1.427,2.923,2.923,0,0,0,1.279-2.09C188.7,140.813,187.733,140,186.271,140Z" transform="translate(-177.994 -135.416)" fill="#fff"/><path d="M8.386,0A8.381,8.381,0,0,0,0,8.386v7.731a.655.655,0,0,0,.655.655H8.386A8.386,8.386,0,0,0,8.386,0Zm0,15.461H1.31V8.386a7.075,7.075,0,1,1,7.075,7.075Z" fill="#fff"/></svg>