<svg xmlns="http://www.w3.org/2000/svg" width="23" height="23" viewBox="0 0 23 23"><g transform="translate(-249.706 -18)"><rect width="23" height="23" rx="2" transform="translate(249.706 18)" fill="#2c43a7" opacity="0.05"/><g transform="translate(252.918 -65.115)"><g transform="translate(0 96.432)"><g transform="translate(0 0)"><path d="M17.318,328.661a3.632,3.632,0,0,0-1.515.293,3.154,3.154,0,0,1-1.329.258,3.153,3.153,0,0,1-1.33-.258,3.632,3.632,0,0,0-1.515-.293,3.628,3.628,0,0,0-1.514.293,3.149,3.149,0,0,1-1.328.258,3.151,3.151,0,0,1-1.329-.258,3.629,3.629,0,0,0-1.515-.293,3.628,3.628,0,0,0-1.514.293,3.149,3.149,0,0,1-1.328.258,3.147,3.147,0,0,1-1.328-.258,3.626,3.626,0,0,0-1.514-.293.257.257,0,0,0,0,.515,3.148,3.148,0,0,1,1.328.258,3.625,3.625,0,0,0,1.514.293,3.628,3.628,0,0,0,1.514-.293,3.149,3.149,0,0,1,1.328-.258,3.151,3.151,0,0,1,1.329.258,3.629,3.629,0,0,0,1.515.293,3.628,3.628,0,0,0,1.514-.293,3.149,3.149,0,0,1,1.328-.258,3.153,3.153,0,0,1,1.329.258,3.633,3.633,0,0,0,1.515.292,3.633,3.633,0,0,0,1.515-.292,3.154,3.154,0,0,1,1.329-.258.257.257,0,0,0,0-.515Z" transform="translate(0 -328.661)" fill="#00a2ff"/></g></g><g transform="translate(15.134 97.79)"><path d="M441.932,368.381a.257.257,0,0,0-.333-.148l-.047.018a4.184,4.184,0,0,1-.476.162.257.257,0,1,0,.129.5,4.653,4.653,0,0,0,.532-.18l.046-.018A.257.257,0,0,0,441.932,368.381Z" transform="translate(-440.883 -368.216)" fill="#00a2ff"/></g><g transform="translate(3.027 97.533)"><path d="M99.451,361.272a3.1,3.1,0,0,1-1.157-.255,4.068,4.068,0,0,0-3.03,0,3.553,3.553,0,0,1-2.657,0,4.067,4.067,0,0,0-3.029,0,3.093,3.093,0,0,1-1.153.255.257.257,0,1,0,.019.515,3.571,3.571,0,0,0,1.32-.289,3.552,3.552,0,0,1,2.657,0,4.067,4.067,0,0,0,3.029,0,3.554,3.554,0,0,1,2.658,0,3.576,3.576,0,0,0,1.324.289.257.257,0,0,0,.019-.515Z" transform="translate(-88.177 -360.725)" fill="#00a2ff"/></g><g transform="translate(5.685 98.634)"><g transform="translate(0 0)"><path d="M171.547,392.791a3.628,3.628,0,0,0-1.514.293,3.553,3.553,0,0,1-2.657,0,3.63,3.63,0,0,0-1.515-.293.257.257,0,0,0,0,.515,3.152,3.152,0,0,1,1.329.258,4.067,4.067,0,0,0,3.029,0,3.149,3.149,0,0,1,1.328-.258.257.257,0,0,0,0-.515Z" transform="translate(-165.603 -392.791)" fill="#00a2ff"/></g></g><g transform="translate(1.421 97.808)"><g transform="translate(0 0)"><path d="M42.214,368.917a4.162,4.162,0,0,1-.478-.163.257.257,0,0,0-.186.48,4.642,4.642,0,0,0,.534.181.257.257,0,1,0,.129-.5Z" transform="translate(-41.386 -368.737)" fill="#00a2ff"/></g></g><g transform="translate(4.678 91.204)"><g transform="translate(0 0)"><path d="M143.759,178.116a4.11,4.11,0,0,0-7.484,2.348c0,.1,0,.2.01.293a.257.257,0,0,0,.257.239h.018a.257.257,0,0,0,.239-.275c-.006-.085-.009-.171-.009-.257a3.6,3.6,0,0,1,6.546-2.053.257.257,0,0,0,.422-.294Z" transform="translate(-136.275 -176.354)" fill="#00a2ff"/></g></g><g transform="translate(1.651 95.056)"><g transform="translate(0 0)"><path d="M50.006,288.581H48.354a.257.257,0,1,0,0,.515h1.651a.257.257,0,1,0,0-.515Z" transform="translate(-48.097 -288.581)" fill="#00a2ff"/></g></g><g transform="translate(8.53 88.177)"><g transform="translate(0 0)"><path d="M248.757,88.177a.257.257,0,0,0-.257.257v1.651a.257.257,0,1,0,.515,0V88.434A.257.257,0,0,0,248.757,88.177Z" transform="translate(-248.5 -88.177)" fill="#00a2ff"/></g></g><g transform="translate(12.227 90.192)"><g transform="translate(0 0)"><path d="M357.8,146.95a.257.257,0,0,0-.364,0l-1.167,1.167a.257.257,0,0,0,.364.364l1.167-1.167A.257.257,0,0,0,357.8,146.95Z" transform="translate(-356.197 -146.874)" fill="#00a2ff"/></g></g><g transform="translate(6.319 89.718)"><g transform="translate(0 0)"><path d="M184.784,133.722l-.211-.508a.257.257,0,1,0-.476.2l.211.508a.257.257,0,1,0,.476-.2Z" transform="translate(-184.078 -133.055)" fill="#00a2ff"/></g></g><g transform="translate(13.361 92.845)"><g transform="translate(0 0)"><path d="M390.215,224.318a.257.257,0,0,0-.336-.139l-.508.211a.257.257,0,1,0,.2.476l.508-.211A.257.257,0,0,0,390.215,224.318Z" transform="translate(-389.211 -224.159)" fill="#00a2ff"/></g></g><g transform="translate(10.531 89.718)"><g transform="translate(0 0)"><path d="M307.35,133.074a.257.257,0,0,0-.336.139l-.211.508a.257.257,0,1,0,.476.2l.211-.508A.257.257,0,0,0,307.35,133.074Z" transform="translate(-306.783 -133.054)" fill="#00a2ff"/></g></g><g transform="translate(3.192 92.845)"><g transform="translate(0 0)"><path d="M93.838,224.388l-.508-.211a.257.257,0,0,0-.2.476l.508.211a.257.257,0,1,0,.2-.476Z" transform="translate(-92.973 -224.158)" fill="#00a2ff"/></g></g><g transform="translate(1.101 89.828)"><g transform="translate(0 0)"><path d="M34.975,136.275a1.718,1.718,0,0,0-1.05.36,1.415,1.415,0,0,0-.424-.065,1.438,1.438,0,0,0-1.437,1.437.257.257,0,0,0,.257.257h4.128a.257.257,0,0,0,.257-.257A1.734,1.734,0,0,0,34.975,136.275Zm-2.359,1.474a.923.923,0,0,1,.885-.664.913.913,0,0,1,.371.079.257.257,0,0,0,.279-.047,1.212,1.212,0,0,1,2.013.632H32.615Z" transform="translate(-32.064 -136.275)" fill="#00a2ff"/></g></g><g transform="translate(9.906 93.857)"><g transform="translate(0 0)"><path d="M291.787,253.949a1.414,1.414,0,0,0-.424.065,1.727,1.727,0,0,0-2.782,1.372.257.257,0,0,0,.257.257h4.128a.257.257,0,0,0,.257-.257A1.438,1.438,0,0,0,291.787,253.949Zm-2.663,1.179a1.212,1.212,0,0,1,2.013-.632.258.258,0,0,0,.279.047.914.914,0,0,1,.371-.079.924.924,0,0,1,.885.664Z" transform="translate(-288.581 -253.654)" fill="#00a2ff"/></g></g></g></g></svg>