<svg xmlns="http://www.w3.org/2000/svg" width="23" height="23" viewBox="0 0 23 23"><g transform="translate(-249.706 -18)"><rect width="23" height="23" rx="2" transform="translate(249.706 18)" fill="#2c43a7" opacity="0.05"/><g transform="translate(244.751 12.045)"><path d="M16.955,23.91a6.939,6.939,0,1,1,2.708-.548A6.924,6.924,0,0,1,16.955,23.91Zm0-13.442a6.487,6.487,0,1,0,4.586,1.9A6.443,6.443,0,0,0,16.955,10.468Z" fill="#00a2ff" stroke="#00a2ff" stroke-width="0.2"/><path d="M480.481,378.318a.282.282,0,0,1-.281-.281v-5.956a.281.281,0,1,1,.562,0v5.956A.282.282,0,0,1,480.481,378.318Z" transform="translate(-463.526 -356.665)" fill="#00a2ff" stroke="#00a2ff" stroke-width="0.2"/><path d="M445.3,200.376a.776.776,0,1,0,.776-.776A.777.777,0,0,0,445.3,200.376Z" transform="translate(-429.121 -186.909)" fill="#00a2ff" stroke="#00a2ff" stroke-width="0.2"/></g></g></svg>