<svg xmlns="http://www.w3.org/2000/svg" width="23" height="23" viewBox="0 0 23 23"><g transform="translate(-313.5 -15)"><rect width="23" height="23" rx="2" transform="translate(313.5 15)" fill="#2c43a7" opacity="0.05"/><g transform="translate(318.751 21.057)"><path d="M13.5,0H9.449L8.1,2.041H5.4L4.05,0H0" transform="translate(0 6.123)" fill="none" stroke="#00a2ff" stroke-linecap="round" stroke-linejoin="round" stroke-miterlimit="10" stroke-width="1"/><path d="M2.342.81,0,6.123v3.4a1.355,1.355,0,0,0,1.35,1.361h10.8A1.355,1.355,0,0,0,13.5,9.525v-3.4L11.157.81A1.349,1.349,0,0,0,9.921,0H3.577A1.349,1.349,0,0,0,2.342.81Z" transform="translate(0 0)" fill="none" stroke="#00a2ff" stroke-linecap="round" stroke-linejoin="round" stroke-miterlimit="10" stroke-width="1"/></g></g></svg>