<svg xmlns="http://www.w3.org/2000/svg" width="21.204" height="21.205" viewBox="0 0 21.204 21.205"><g transform="translate(0)"><path d="M3.053,58.129a1.486,1.486,0,0,1,2.246,0c.525.521,1.05,1.041,1.566,1.571a.309.309,0,0,0,.432.079c.34-.185.7-.335,1.028-.538a16.29,16.29,0,0,0,3.927-3.574,9.3,9.3,0,0,0,1.408-2.255A.323.323,0,0,0,13.581,53c-.525-.507-1.037-1.028-1.553-1.549a1.492,1.492,0,0,1,0-2.3c.41-.415.821-.821,1.231-1.236s.843-.852,1.271-1.271a1.5,1.5,0,0,1,2.246,0c.53.521,1.037,1.055,1.575,1.566a2.557,2.557,0,0,1,.8,1.725,7.31,7.31,0,0,1-.565,3.146A19.118,19.118,0,0,1,15.2,58.738a21,21,0,0,1-6.954,5.441A10.057,10.057,0,0,1,4.395,65.3a2.823,2.823,0,0,1-2.422-.922c-.45-.5-.958-.962-1.434-1.443a1.5,1.5,0,0,1-.009-2.286Q1.787,59.384,3.053,58.129Z" transform="translate(2.03 -44.102)" fill="#00a2ff"/><path d="M239.482,102.275,237.854,102a7.309,7.309,0,0,1,6.182-6l.229,1.637a5.648,5.648,0,0,0-4.783,4.638Z" transform="translate(-233.556 -91.764)" fill="#00a2ff"/><path d="M246.134,3.433A12.006,12.006,0,0,1,253.018,0l.229,1.637a10.476,10.476,0,0,0-8.865,8.591l-1.628-.278A12.094,12.094,0,0,1,246.134,3.433Z" transform="translate(-242.754)" fill="#00a2ff"/></g></svg>