<svg xmlns="http://www.w3.org/2000/svg" width="23" height="23" viewBox="0 0 23 23"><g transform="translate(-249.706 -18)"><rect width="23" height="23" rx="2" transform="translate(249.706 18)" fill="#2c43a7" opacity="0.05"/><g transform="translate(255.698 22.5)"><path d="M6.471,12.985A6.485,6.485,0,0,1,3.4,12.213a4.154,4.154,0,0,1-2.327.756,3.115,3.115,0,0,1-.458-.035.606.606,0,0,1-.173-1.142,2.43,2.43,0,0,0,1.02-1.183A6.509,6.509,0,0,1,1.894,1.9,6.473,6.473,0,0,1,12.944,6.5a6.479,6.479,0,0,1-6.473,6.489ZM3.38,11.405a.382.382,0,0,1,.185.052,5.753,5.753,0,0,0,6.966-9.04,5.73,5.73,0,0,0-8.118,0A5.775,5.775,0,0,0,2.171,10.3a.371.371,0,0,1,.062.391,3.674,3.674,0,0,1-1.109,1.536,3.449,3.449,0,0,0,2.031-.748A.383.383,0,0,1,3.38,11.405Z" transform="translate(0.004 0)" fill="#00a2ff"/><path d="M5.789,0H.366A.365.365,0,0,0,0,.367.365.365,0,0,0,.366.734H5.789a.367.367,0,0,0,0-.734Z" transform="translate(3.398 4.35)" fill="#00a2ff"/><path d="M5.789,0H.366A.365.365,0,0,0,0,.367.365.365,0,0,0,.366.734H5.789a.367.367,0,0,0,0-.734Z" transform="translate(3.398 6.125)" fill="#00a2ff"/><path d="M5.789,0H.366A.365.365,0,0,0,0,.367.365.365,0,0,0,.366.734H5.789a.367.367,0,0,0,0-.734Z" transform="translate(3.398 7.901)" fill="#00a2ff"/></g></g></svg>