<svg xmlns="http://www.w3.org/2000/svg" width="23" height="23" viewBox="0 0 23 23"><g transform="translate(-313.5 -15)"><rect width="23" height="23" rx="2" transform="translate(313.5 15)" fill="#2c43a7" opacity="0.05"/><g transform="translate(304.119 19.326)"><g transform="translate(18.079 5.932)"><g transform="translate(0)"><rect width="5.932" height="0.494" fill="#00a2ff"/></g></g><g transform="translate(18.079 7.414)"><g transform="translate(0)"><path d="M80.1,240v.494h4.811l.494-.494Z" transform="translate(-80.102 -239.998)" fill="#00a2ff"/></g></g><g transform="translate(18.079 8.897)"><g transform="translate(0)"><path d="M80.1,288v.494H83.43l.494-.494Z" transform="translate(-80.102 -287.998)" fill="#00a2ff"/></g></g><g transform="translate(18.079 10.38)"><g transform="translate(0)"><rect width="2.472" height="0.494" fill="#00a2ff"/></g></g><g transform="translate(16.102)"><g transform="translate(0)"><path d="M28.309,5.286l-.7-.7a.494.494,0,0,0-.7,0L21.539,9.958v1.411c1.19,0,.889,0,1.388,0L25.494,8.8v3.558a.494.494,0,0,1-.494.494H17.091a.494.494,0,0,1-.494-.494V3.46a.494.494,0,0,1,.494-.494h.989v.989h5.932V2.966H25a.494.494,0,0,1,.494.494V5.3l.494-.5V3.46A.989.989,0,0,0,25,2.471H23.925a1.486,1.486,0,0,0-.987-.931.68.68,0,0,1-.468-.468,1.483,1.483,0,0,0-2.851,0,.681.681,0,0,1-.469.468,1.486,1.486,0,0,0-.987.931H17.091a.989.989,0,0,0-.989.989v8.9a.989.989,0,0,0,.989.989H25a.989.989,0,0,0,.989-.989V8.306l2.32-2.32A.5.5,0,0,0,28.309,5.286ZM18.574,2.958a.994.994,0,0,1,.714-.942,1.173,1.173,0,0,0,.807-.807.989.989,0,0,1,1.9,0,1.172,1.172,0,0,0,.807.807.993.993,0,0,1,.715.95V3.46H18.574Zm4.147,7.916h-.358l-.329-.329v-.382l.333-.333.7.7Zm.694-.694-.7-.7,3.146-3.146.7.7Zm3.5-3.5-.7-.7.35-.35.7.7Zm.7-.7-.7-.7.35-.35.7.7Z" transform="translate(-16.102)" fill="#00a2ff"/></g></g><g transform="translate(20.682 1.112)"><g transform="translate(0)"><circle cx="0.371" cy="0.371" r="0.371" fill="#00a2ff"/></g></g></g></g></svg>