<svg xmlns="http://www.w3.org/2000/svg" width="23" height="23" viewBox="0 0 23 23"><g transform="translate(-313.5 -15)"><rect width="23" height="23" rx="2" transform="translate(313.5 15)" fill="#2c43a7" opacity="0.05"/><g transform="translate(318.364 18.864)"><path d="M13.582,7.827V4.834a.691.691,0,0,0-.691-.691h-.46a.686.686,0,0,0-.46.18.685.685,0,0,0-.46-.18h-.46a.686.686,0,0,0-.46.18.685.685,0,0,0-.46-.18h-.46a.691.691,0,0,0-.691.691V7.788a5.3,5.3,0,0,0-2.441-.814L6.9,4.436a.659.659,0,0,0-.653-.753h-2.1V1.611a.231.231,0,0,1,.23-.23H6.216A.691.691,0,0,0,6.216,0H4.144A1.383,1.383,0,0,0,2.763,1.381v2.3H.66a.661.661,0,0,0-.66.66.674.674,0,0,0,.007.093L.561,8.32A2.257,2.257,0,0,0,0,9.669a.919.919,0,0,0,.619.866.915.915,0,0,0,.1,1.148,1.381,1.381,0,0,0,.666,2.591H14.273V8.518A.691.691,0,0,0,13.582,7.827ZM12.2,4.834a.231.231,0,0,1,.23-.23h.46a.231.231,0,0,1,.23.23V7.827H12.2Zm-1.381,0a.231.231,0,0,1,.23-.23h.46a.231.231,0,0,1,.23.23V7.827H10.82Zm-1.381,0a.231.231,0,0,1,.23-.23h.46a.231.231,0,0,1,.23.23V7.827H9.439ZM5.755.46h.46a.23.23,0,1,1,0,.46h-.46Zm-.921,0h.46v.46h-.46Zm-1.611.921A.922.922,0,0,1,4.144.46h.23v.46a.691.691,0,0,0-.691.691V3.683h-.46ZM.5,4.6.462,4.372a.2.2,0,0,1,0-.029.2.2,0,0,1,.2-.2H6.246a.2.2,0,0,1,.2.2.225.225,0,0,1,0,.028L6.411,4.6H5.755v.46h.59l-.131.921H.693L.561,5.065H5.295V4.6ZM6.148,6.446l-.07.487c-.247-.017-.506-.027-.783-.027h-.46A6.032,6.032,0,0,0,.97,7.924L.759,6.446ZM.46,9.669c0-.023.05-2.3,4.374-2.3h.46c4.294,0,4.373,2.21,4.374,2.3a.461.461,0,0,1-.46.46H.921A.461.461,0,0,1,.46,9.669Zm.921,1.842a.46.46,0,1,1,0-.921H8.748a.46.46,0,1,1,0,.921Zm6.406.46-.945,1.1-2.519-1.1Zm.961,1.842H1.381a.921.921,0,0,1,0-1.842H3.175l3.8,1.661,1.423-1.661h.355a.921.921,0,0,1,0,1.842Zm.666-2.13a.9.9,0,0,0,.127-1.093h3.351v2.3H10.129a1.376,1.376,0,0,0-.081-.46H11.51v-.46H9.775A1.39,1.39,0,0,0,9.414,11.682Zm4.4-2.474h-.46v.46h.46v4.144H9.775a1.376,1.376,0,0,0,.274-.46h3.3V10.129H10a.911.911,0,0,0,.128-.46h2.763v-.46H10.051a2.466,2.466,0,0,0-.511-.921h4.042a.23.23,0,0,1,.23.23Z" fill="#00a2ff"/><rect width="0.46" height="0.46" transform="translate(11.971 11.971)" fill="#00a2ff"/><rect width="0.46" height="0.46" transform="translate(2.993 7.827)" fill="#00a2ff"/><rect width="0.46" height="0.46" transform="translate(3.914 8.288)" fill="#00a2ff"/><rect width="0.46" height="0.46" transform="translate(4.834 7.827)" fill="#00a2ff"/><rect width="0.46" height="0.46" transform="translate(6.216 8.518)" fill="#00a2ff"/><rect width="0.46" height="0.46" transform="translate(7.367 7.827)" fill="#00a2ff"/><rect width="0.46" height="0.46" transform="translate(1.611 8.748)" fill="#00a2ff"/></g></g></svg>