<svg xmlns="http://www.w3.org/2000/svg" width="23" height="23" viewBox="0 0 23 23"><g transform="translate(-249.706 -18)"><rect width="23" height="23" rx="2" transform="translate(249.706 18)" fill="#2c43a7" opacity="0.05"/><path d="M15.366,1.855H11.159V1.391A1.393,1.393,0,0,0,9.768,0H6.059A1.393,1.393,0,0,0,4.668,1.391v.464H.464A.465.465,0,0,0,0,2.318v10.2A1.393,1.393,0,0,0,1.391,13.91H14.436a1.393,1.393,0,0,0,1.391-1.391V2.326a.45.45,0,0,0-.461-.472ZM5.6,1.391A.464.464,0,0,1,6.059.927H9.768a.464.464,0,0,1,.464.464v.464H5.6ZM14.72,2.782,13.28,7.1a.463.463,0,0,1-.44.317H10.232V6.955a.464.464,0,0,0-.464-.464H6.059a.464.464,0,0,0-.464.464v.464H2.987a.463.463,0,0,1-.44-.317l-1.44-4.32ZM9.3,7.419v.927H6.522V7.419Zm5.595,5.1a.464.464,0,0,1-.464.464H1.391a.464.464,0,0,1-.464-.464V5.176l.74,2.219a1.389,1.389,0,0,0,1.32.951H5.6V8.81a.464.464,0,0,0,.464.464H9.768a.464.464,0,0,0,.464-.464V8.346H12.84a1.389,1.389,0,0,0,1.32-.951l.74-2.219Zm0,0" transform="translate(253.793 22.045)" fill="#00a2ff"/></g></svg>