<svg xmlns="http://www.w3.org/2000/svg" width="17.64" height="20.91" viewBox="0 0 17.64 20.91"><g transform="translate(-37.758 0)"><g transform="translate(37.758 0)"><path d="M134.694,8.866a4.422,4.422,0,0,0,2.719,3.368,2.979,2.979,0,0,0,2,0,4.5,4.5,0,0,0,2.727-3.364c.208-.017.481-.307.775-1.351.4-1.424-.026-1.636-.39-1.6a3.777,3.777,0,0,0,.156-.584c.615-3.693-1.2-3.818-1.2-3.818a2.8,2.8,0,0,0-1.1-1.017,3.7,3.7,0,0,0-2.247-.476,3.355,3.355,0,0,0-.9.169h0a3.938,3.938,0,0,0-.987.507,5.174,5.174,0,0,0-1.013.84,4.112,4.112,0,0,0-1.1,1.922,4.173,4.173,0,0,0,.009,1.879h0a3.652,3.652,0,0,0,.156.584c-.364-.035-.792.178-.39,1.6C134.213,8.558,134.486,8.848,134.694,8.866Z" transform="translate(-129.596 0)" fill="#343a4f"/><path d="M53.718,276.3a13.732,13.732,0,0,1-4.009-1.827l-1.4,4.438-.264.836,0-.013-.229.71-.74-2.1c1.818-2.537-.368-2.511-.489-2.507s-2.308-.03-.489,2.507l-.74,2.1-.229-.71,0,.013-.264-.836-1.407-4.438a13.731,13.731,0,0,1-4.009,1.827c-1.649.42-1.727,2.325-1.662,3.264,0,0,.1,1.277.19,1.84a16.921,16.921,0,0,0,8.615,2.1,16.869,16.869,0,0,0,8.615-2.1c.1-.563.19-1.84.19-1.84C55.445,278.626,55.367,276.721,53.718,276.3Z" transform="translate(-37.758 -262.591)" fill="#343a4f"/></g></g></svg>