<svg xmlns="http://www.w3.org/2000/svg" width="70.174" height="51.283" viewBox="0 0 70.174 51.283"><g transform="translate(0)"><g transform="translate(0 0)"><ellipse cx="8.975" cy="8.975" rx="8.975" ry="8.975" transform="translate(39.005 13.218)" fill="#ffdc7b"/><path d="M62.3,9.806h0A1.076,1.076,0,0,0,63.372,8.73V1.076A1.076,1.076,0,0,0,62.3,0h0A1.076,1.076,0,0,0,61.22,1.076V8.73A1.076,1.076,0,0,0,62.3,9.806Z" transform="translate(-14.316 0)" fill="#ffdc7b"/><path d="M62.3,110.06h0a1.076,1.076,0,0,0,1.076-1.076v-7.658A1.076,1.076,0,0,0,62.3,100.25h0a1.076,1.076,0,0,0-1.076,1.076v7.654a1.076,1.076,0,0,0,1.076,1.08Z" transform="translate(-14.316 -65.67)" fill="#ffdc7b"/><path d="M96.075,25.235h0a1.076,1.076,0,0,0,0-1.521L90.663,18.3a1.076,1.076,0,0,0-1.521,0h0a1.076,1.076,0,0,0,0,1.521l5.412,5.412A1.076,1.076,0,0,0,96.075,25.235Z" transform="translate(-56.856 -11.783)" fill="#ffdc7b"/><path d="M25.185,96.075h0a1.076,1.076,0,0,0,0-1.521l-5.412-5.412a1.076,1.076,0,0,0-1.521,0h0a1.076,1.076,0,0,0,0,1.521l5.412,5.412a1.076,1.076,0,0,0,1.521,0Z" transform="translate(38.486 -58.188)" fill="#ffdc7b"/><path d="M110.056,62.3h0a1.076,1.076,0,0,0-1.076-1.076h-7.654A1.076,1.076,0,0,0,100.25,62.3h0a1.076,1.076,0,0,0,1.076,1.076h7.654A1.076,1.076,0,0,0,110.056,62.3Z" transform="translate(-74.463 -40.103)" fill="#ffdc7b"/><path d="M9.806,62.3h0A1.076,1.076,0,0,0,8.73,61.22H1.076A1.076,1.076,0,0,0,0,62.3H0a1.076,1.076,0,0,0,1.076,1.076H8.73A1.076,1.076,0,0,0,9.806,62.3Z" transform="translate(60.367 -40.103)" fill="#ffdc7b"/><path d="M96.075,89.142h0a1.076,1.076,0,0,0-1.521,0l-5.412,5.412a1.076,1.076,0,0,0,0,1.521h0a1.076,1.076,0,0,0,1.521,0l5.412-5.412a1.076,1.076,0,0,0,0-1.521Z" transform="translate(-56.856 -58.188)" fill="#ffdc7b"/><path d="M25.211,18.252h0a1.076,1.076,0,0,0-1.521,0l-5.429,5.412a1.076,1.076,0,0,0,0,1.538h0a1.076,1.076,0,0,0,1.521,0l5.429-5.429a1.076,1.076,0,0,0,0-1.521Z" transform="translate(38.46 -11.75)" fill="#ffdc7b"/><path d="M41.7,69.2h.083a10.113,10.113,0,0,1,14.663-12.58,14.066,14.066,0,0,1,26.994,7.092h.117a9.443,9.443,0,1,1,0,18.887l-41.858,0a6.7,6.7,0,1,1,0-13.394Z" transform="translate(-34.85 -31.313)" fill="#fff"/></g></g></svg>