<svg xmlns="http://www.w3.org/2000/svg" width="23" height="23" viewBox="0 0 23 23"><g transform="translate(-341 -727)"><rect width="23" height="23" rx="2" transform="translate(341 727)" fill="#2c43a7" opacity="0.05"/><g transform="translate(346.178 731.18)"><g transform="translate(0.001)"><path d="M11.731,8.8V1.629A1.631,1.631,0,0,0,10.1,0H2.934A.326.326,0,0,0,2.7.1L.1,2.7a.326.326,0,0,0-.1.23V14.011A1.631,1.631,0,0,0,1.63,15.641H10.1a1.631,1.631,0,0,0,1.629-1.629V13.36H11.08v.652a.978.978,0,0,1-.978.978H1.63a.978.978,0,0,1-.978-.978V3.068L3.069.652H10.1a.978.978,0,0,1,.978.978V8.8Z" transform="translate(-0.001)" fill="#00a2ff"/></g><g transform="translate(1.63 0.326)"><path d="M54.312,10.667v1.955a.326.326,0,0,1-.326.326h-.652V13.6h.652a.978.978,0,0,0,.978-.978V10.667Z" transform="translate(-53.334 -10.667)" fill="#00a2ff"/></g><g transform="translate(9.125 6.843)"><path d="M305.091,225l-.9-.9a.326.326,0,0,0-.461,0l-4.963,4.963a.326.326,0,0,0,0,.461l.9.9a.326.326,0,0,0,.461,0l4.963-4.963A.326.326,0,0,0,305.091,225Zm-5.193,4.733-.442-.442,4.5-4.5.441.441Z" transform="translate(-298.67 -224.002)" fill="#00a2ff"/></g><g transform="translate(9.125 12.056)"><path d="M299.32,395.319v-.652h-.652v.978a.326.326,0,0,0,.326.326h.978v-.652Z" transform="translate(-298.668 -394.667)" fill="#00a2ff"/></g><g transform="translate(8.799 1.303)"><path d="M288.653,42.667H288v.652h.652a.326.326,0,0,1,.326.326V44.3h.652v-.652A.977.977,0,0,0,288.653,42.667Z" transform="translate(-288.001 -42.667)" fill="#00a2ff"/></g><g transform="translate(2.934 4.562)"><path d="M101.54,149.333H96.327a.326.326,0,0,0-.326.326v4.562a.326.326,0,0,0,.182.293l2.266,1.108a.99.99,0,0,0,.489.13h0a.928.928,0,0,0,.462-.12l2.284-1.119a.326.326,0,0,0,.182-.293v-4.562A.326.326,0,0,0,101.54,149.333Zm-.326,4.684L99.1,155.056a.339.339,0,0,1-.341-.01l-2.1-1.029v-4.033h4.562v4.033Z" transform="translate(-96.001 -149.333)" fill="#00a2ff"/></g><g transform="translate(4.332 6.336)"><path d="M144.725,207.413,143,209.138l-.747-.747-.461.461.978.978a.326.326,0,0,0,.461,0l1.955-1.955Z" transform="translate(-141.792 -207.413)" fill="#00a2ff"/></g><g transform="translate(5.54 11.73)"><path d="M182.312,384.978a.326.326,0,0,1-.326-.326V384h-.652v.652a.978.978,0,0,0,.978.978h1.955v-.652Z" transform="translate(-181.334 -384)" fill="#00a2ff"/></g><g transform="translate(7.495 1.303)"><rect width="0.652" height="0.652" fill="#00a2ff"/></g></g></g></svg>