<svg xmlns="http://www.w3.org/2000/svg" width="23" height="23" viewBox="0 0 23 23"><g transform="translate(-341 -190)"><rect width="23" height="23" rx="2" transform="translate(341 190)" fill="#2c43a7" opacity="0.05"/><path d="M1082.2,159.488h-3.872a1.291,1.291,0,0,1-1.291-1.291v-3.872a1.291,1.291,0,0,1,1.291-1.291h3.872a1.291,1.291,0,0,1,1.291,1.291V158.2A1.291,1.291,0,0,1,1082.2,159.488Zm0-5.163h-3.872V158.2h3.872Zm0-3.872h-3.872a1.291,1.291,0,0,1-1.291-1.291v-3.872a1.291,1.291,0,0,1,1.291-1.291h3.872a1.291,1.291,0,0,1,1.291,1.291v3.872A1.291,1.291,0,0,1,1082.2,150.454Zm0-5.163h-3.872v3.872h3.872Zm-9.035,14.2h-3.872A1.291,1.291,0,0,1,1068,158.2v-3.872a1.291,1.291,0,0,1,1.291-1.291h3.872a1.291,1.291,0,0,1,1.291,1.291V158.2A1.291,1.291,0,0,1,1073.163,159.488Zm0-5.163h-3.872V158.2h3.872Zm0-3.872h-3.872a1.291,1.291,0,0,1-1.291-1.291v-3.872a1.291,1.291,0,0,1,1.291-1.291h3.872a1.291,1.291,0,0,1,1.291,1.291v3.872A1.291,1.291,0,0,1,1073.163,150.454Zm0-5.163h-3.872v3.872h3.872Z" transform="translate(-722.488 49.512)" fill="#00a2ff" fill-rule="evenodd"/></g></svg>