<svg xmlns="http://www.w3.org/2000/svg" xmlns:xlink="http://www.w3.org/1999/xlink" width="16.957" height="16.958" viewBox="0 0 16.957 16.958"><defs><clipPath id="a"><path d="M0,8.479a8.479,8.479,0,0,0,8.478,8.479h0a8.479,8.479,0,0,0,8.479-8.479h0A8.479,8.479,0,0,0,8.478,0h0A8.478,8.478,0,0,0,0,8.479Z" fill="none"/></clipPath></defs><g transform="translate(-0.172 -0.404)"><path d="M0,8.479a8.479,8.479,0,0,0,8.478,8.479h0a8.479,8.479,0,0,0,8.479-8.479h0A8.479,8.479,0,0,0,8.478,0h0A8.478,8.478,0,0,0,0,8.479Z" transform="translate(0.172 0.404)" fill="none"/><g transform="translate(0.172 0.404)" clip-path="url(#a)"><path d="M0,5.9H28.868V0H0Z" transform="translate(-3.518 -0.453)"/><path d="M0,6.013H28.868V0H0Z" transform="translate(-3.518 11.398)" fill="#007a3d"/><path d="M0,5.955H28.868V0H0Z" transform="translate(-3.518 5.442)" fill="#fff"/><path d="M0,0,11.287,8.953,0,17.865Z" transform="translate(-3.518 -0.454)" fill="#c4111b"/><path d="M0,1.135H1.249L1.657,0l.409,1.135H3.41l-1.1.727L2.7,3,1.657,2.288.567,3.006l.42-1.144Z" transform="translate(10.757 6.702)" fill="#c4111b"/><path d="M2.989,4.7C.991,4.7,0,3.667,0,2.306S.975,0,2.989,0A2.6,2.6,0,0,0,.943,2.356,2.575,2.575,0,0,0,2.989,4.7" transform="translate(9.499 5.984)" fill="#c4111b"/></g></g></svg>