<svg xmlns="http://www.w3.org/2000/svg" width="21.678" height="21.678" viewBox="0 0 21.678 21.678"><g transform="translate(1.1 1.1)"><g transform="translate(-1 -1)"><g transform="translate(0 0)"><path d="M20.12,18.33H19.046V-.642A.338.338,0,0,0,18.688-1H.79a.338.338,0,0,0-.358.358V18.33H-.642A.338.338,0,0,0-1,18.688V20.12a.338.338,0,0,0,.358.358H20.12a.338.338,0,0,0,.358-.358V18.688A.338.338,0,0,0,20.12,18.33ZM1.148-.284H18.33V18.33h-5.37V14.393a.338.338,0,0,0-.358-.358H6.875a.338.338,0,0,0-.358.358V18.33H1.148ZM7.233,18.33v-3.58H9.381v3.58Zm2.864-3.58h2.148v3.58H10.1Zm9.665,5.012H-.284v-.716H19.762v.716Z" transform="translate(1 1)" fill="#343a4f" stroke="#343a4f" stroke-width="0.2"/><path d="M86.157,40.967H83.293a.338.338,0,0,0-.358.358v2.148a.338.338,0,0,0,.358.358h2.864a.338.338,0,0,0,.358-.358V41.325A.338.338,0,0,0,86.157,40.967ZM85.8,43.115H83.651V41.683H85.8Z" transform="translate(-79.355 -38.177)" fill="#343a4f"/><path d="M86.157,133.295H83.293a.338.338,0,0,0-.358.358V135.8a.338.338,0,0,0,.358.358h2.864a.338.338,0,0,0,.358-.358v-2.148A.338.338,0,0,0,86.157,133.295Zm-.358,2.148H83.651v-1.432H85.8Z" transform="translate(-79.355 -125.568)" fill="#343a4f"/><path d="M209.194,136.16h2.864a.338.338,0,0,0,.358-.358v-2.148a.338.338,0,0,0-.358-.358h-2.864a.338.338,0,0,0-.358.358V135.8A.338.338,0,0,0,209.194,136.16Zm.358-2.148H211.7v1.432h-2.148Z" transform="translate(-199.887 -125.568)" fill="#343a4f"/><path d="M335.1,136.16h2.864a.338.338,0,0,0,.358-.358v-2.148a.338.338,0,0,0-.358-.358H335.1a.338.338,0,0,0-.358.358V135.8A.338.338,0,0,0,335.1,136.16Zm.358-2.148H337.6v1.432h-2.148Z" transform="translate(-320.419 -125.568)" fill="#343a4f"/><path d="M209.194,43.832h2.864a.338.338,0,0,0,.358-.358V41.326a.338.338,0,0,0-.358-.358h-2.864a.338.338,0,0,0-.358.358v2.148A.338.338,0,0,0,209.194,43.832Zm.358-2.148H211.7v1.432h-2.148Z" transform="translate(-199.887 -38.178)" fill="#343a4f"/><path d="M335.1,43.832h2.864a.338.338,0,0,0,.358-.358V41.326a.338.338,0,0,0-.358-.358H335.1a.338.338,0,0,0-.358.358v2.148A.338.338,0,0,0,335.1,43.832Zm.358-2.148H337.6v1.432h-2.148Z" transform="translate(-320.419 -38.178)" fill="#343a4f"/><path d="M192.408,318.668h4.3a.358.358,0,0,0,0-.716h-4.3a.358.358,0,0,0,0,.716Z" transform="translate(-183.817 -304.349)" fill="#343a4f"/></g></g></g></svg>