<svg xmlns="http://www.w3.org/2000/svg" width="24" height="24" viewBox="0 0 24 24"><path d="M13.091,24H10.909V21.709a9.519,9.519,0,0,1-5.782-2.755,9.994,9.994,0,0,1-2.836-5.864H0V10.909H2.291a9.546,9.546,0,0,1,8.618-8.618V0h2.182V2.291a9.515,9.515,0,0,1,5.782,2.755,9.994,9.994,0,0,1,2.836,5.864H24v2.182H21.709a9.522,9.522,0,0,1-2.755,5.782,9.994,9.994,0,0,1-5.864,2.836V24ZM12,4.364A7.555,7.555,0,0,0,4.364,12,7.555,7.555,0,0,0,12,19.636,7.555,7.555,0,0,0,19.636,12,7.555,7.555,0,0,0,12,4.364Zm0,12A4.363,4.363,0,1,1,16.363,12,4.368,4.368,0,0,1,12,16.363Z" fill="#d51b91"/></svg>