<svg xmlns="http://www.w3.org/2000/svg" xmlns:xlink="http://www.w3.org/1999/xlink" width="16.957" height="16.958" viewBox="0 0 16.957 16.958"><defs><clipPath id="a"><path d="M0,8.479a8.479,8.479,0,0,0,8.478,8.479h0a8.479,8.479,0,0,0,8.479-8.479h0A8.479,8.479,0,0,0,8.478,0h0A8.478,8.478,0,0,0,0,8.479Z" fill="none"/></clipPath></defs><g transform="translate(-0.172 -0.404)"><path d="M0,8.479a8.479,8.479,0,0,0,8.478,8.479h0a8.479,8.479,0,0,0,8.479-8.479h0A8.479,8.479,0,0,0,8.478,0h0A8.478,8.478,0,0,0,0,8.479Z" transform="translate(0.172 0.404)" fill="none"/><g transform="translate(0.172 0.404)" clip-path="url(#a)"><path d="M0,5.9H28.868V0H0Z" transform="translate(-3.518 -0.453)"/><path d="M0,6.013H28.868V0H0Z" transform="translate(-3.518 11.398)" fill="#007a3d"/><path d="M0,5.955H28.868V0H0Z" transform="translate(-3.518 5.442)" fill="#fff"/><path d="M0,0,11.287,8.953,0,17.865Z" transform="translate(-3.518 -0.454)" fill="#c4111b"/></g></g></svg>