<svg xmlns="http://www.w3.org/2000/svg" xmlns:xlink="http://www.w3.org/1999/xlink" width="18.994" height="18.994" viewBox="0 0 18.994 18.994"><defs><clipPath id="a"><path d="M0,9.5a9.5,9.5,0,0,0,9.5,9.5h0a9.5,9.5,0,0,0,9.5-9.5h0A9.5,9.5,0,0,0,9.5,0h0A9.5,9.5,0,0,0,0,9.5Z" fill="none"/></clipPath></defs><g transform="translate(-0.436 -0.134)"><path d="M0,9.5a9.5,9.5,0,0,0,9.5,9.5h0a9.5,9.5,0,0,0,9.5-9.5h0A9.5,9.5,0,0,0,9.5,0h0A9.5,9.5,0,0,0,0,9.5Z" transform="translate(0.436 0.134)" fill="none"/><g transform="translate(0.436 0.134)" clip-path="url(#a)"><path d="M0,19.731H32.142V0H0Z" transform="translate(-6.574 -0.368)" fill="#006b35"/><path d="M1.175,1.268c-.006.231.022.5.14.393s0-.658,0-.658C1.267.732,1.227.613,1.2.375s.044-.4.144-.373c.213.048.241.448.261.7a2.167,2.167,0,0,0,.117.715c.085.141.193.033.089-.14a1.14,1.14,0,0,1-.1-.77c.072-.222.256-.038.256-.038a1.067,1.067,0,0,1,.152.822c.347.318.394.281.475.281s.047-.289-.024-.356-.321-.48-.249-.7S2.636.3,2.79.539c.193.274.065.338-.048.235a1.844,1.844,0,0,1,.193.912c-.088.252-.6.485-.8.3S1.8,1.9,1.8,2.026a5.842,5.842,0,0,1,.048,1.051c-.088.577-.313.488-.313.488S1.5,2.56,1.452,2.385s-.157-.144-.39-.217S.893,1.531.893,1.531s.052-.381-.041-.466c-.144,0-.136.259-.136.422s0,.606-.249.606-.409-.206-.449-.51a5.129,5.129,0,0,1,0-.822s.1-.192.169.156.127.725.232.725.145-.465.21-.658S.81.523,1.022.561s.157.526.154.706" transform="translate(1.503 5.093)" fill="#fff"/><path d="M14.728,5.318c-.072,0-.118-.016-.137-.047a.089.089,0,0,1,0-.084c.014-.013.027-.028.038-.04l0,0,.008-.009.007-.009,0,0,0,0,0,0a.364.364,0,0,1,.079-.076,1.494,1.494,0,0,1,.207-.1l.008,0,.009,0,.005,0a1.79,1.79,0,0,0,.207-.1,1.2,1.2,0,0,0,.482-.577,4.164,4.164,0,0,0-.015-.515V3.68l0-.026c-.006-.1-.012-.195-.012-.259s-.049-.615-.081-.888c-.008-.064-.015-.126-.021-.188l0-.018,0-.023v-.01c-.021-.189-.049-.447-.1-.767-.006-.036-.013-.08-.022-.13l0-.015A2.932,2.932,0,0,1,15.317.331l.112-.207a.337.337,0,0,1,.137.136l.005.008a.482.482,0,0,0,.034.049c.044.057.086.116.117.16l0,0,.006.009L15.8.582a.755.755,0,0,1,.057.1.491.491,0,0,0,.087.136.19.19,0,0,1-.015.074L15.849.9l-.037,0-.017,0h-.028V.923H15.75a1.8,1.8,0,0,0,.079.451l0,.008a1.628,1.628,0,0,1,.04.234v.05a1.709,1.709,0,0,0,.037.234c0,.084.013.154.024.237s.017.146.023.218a7.849,7.849,0,0,1,.035,1c0,.08,0,.158,0,.235,0,.045,0,.09,0,.135v0a2.085,2.085,0,0,1-.178,1.119,1.111,1.111,0,0,1-.594.4,1.5,1.5,0,0,1-.354.059A.917.917,0,0,1,14.728,5.318ZM1.746,5.236H1.683a.836.836,0,0,1-.862-.729,1.23,1.23,0,0,1,.1-.683C.931,3.8.95,3.76.988,3.754h0c.017,0,.066.013.069.026.016.071.026.151.035.221v.012l0,.012,0,.016c.029.242.059.491.218.6a.933.933,0,0,0,.53.148A1.591,1.591,0,0,0,2.973,4.3a1.722,1.722,0,0,0,.274-.517c.01-.052.025-.115.045-.193l0-.009,0-.006c.017-.068.035-.138.048-.207a.341.341,0,0,0-.033-.192c-.118.015-.158.207-.192.376v0a1.01,1.01,0,0,1-.047.182,1.39,1.39,0,0,1-.8.77,1.116,1.116,0,0,1-.338.059.741.741,0,0,1-.665-.391A.985.985,0,0,1,1.3,3.188h.08a2.189,2.189,0,0,1,.044.272c.027.226.059.482.213.572a.4.4,0,0,0,.2.045,1.079,1.079,0,0,0,.328-.06,1.016,1.016,0,0,0,.755-.77.769.769,0,0,0-.123.04l-.049.031,0,0a.705.705,0,0,1-.079.045.485.485,0,0,1-.181.036.437.437,0,0,1-.1-.01.288.288,0,0,1-.236-.332.713.713,0,0,1,.145-.5.535.535,0,0,1,.348-.176.24.24,0,0,1,.059.005A.736.736,0,0,1,3.12,2.7a.178.178,0,0,0,.14-.066.384.384,0,0,0,.032-.283c-.011-.047-.023-.094-.035-.14a5.1,5.1,0,0,1-.119-.566c-.006-.043-.011-.086-.017-.129l-.008-.061V1.418a4.2,4.2,0,0,0-.1-.6A2.035,2.035,0,0,1,2.944.447C2.934.27,3.157.218,3.183.213a.1.1,0,0,1,.029,0,.193.193,0,0,1,.136.064,1.053,1.053,0,0,1,.212.45v0l.008.029A.962.962,0,0,0,3.6.865l.006.014c.018.042.052.121.032.167a.055.055,0,0,1-.035.031.077.077,0,0,1-.026,0,.225.225,0,0,1-.051-.008H3.516a.213.213,0,0,0-.038,0,.072.072,0,0,0-.039.01c-.054.034-.03.119-.017.165l0,.011,0,.01c.027.1.043.162.057.233.04.212.061.427.079.6v.018c.011.11.022.214.034.318l.009.006,0,0,0,0a.4.4,0,0,0,.067-.02.317.317,0,0,1,.1-.024.086.086,0,0,1,.056.015c.053.025.058.078.062.134a.2.2,0,0,0,.034.117.165.165,0,0,0,.092.027.22.22,0,0,0,.132-.041.274.274,0,0,0,.079-.117.41.41,0,0,1,.05-.09l.02-.013L4.4,2.374h.009a.135.135,0,0,1,.072.014c.063.022.089.082.115.14l.006.015.007.016c.005.012.011.025.017.035.123,0,.126-.049.131-.11a.237.237,0,0,1,.03-.111.17.17,0,0,1,.126-.08l.007,0,.008,0a.293.293,0,0,0,.083-.034h.016v0A1.2,1.2,0,0,1,4.858,3a.289.289,0,0,1-.212.086.39.39,0,0,1-.113-.015.357.357,0,0,1-.1-.042l0,0a.42.42,0,0,0-.109-.046.642.642,0,0,1-.437.211.257.257,0,0,1-.222-.108.205.205,0,0,0-.052.011L3.6,3.1c0,.067.009.141.022.246a1.936,1.936,0,0,1,.011.509A1.746,1.746,0,0,1,2.218,5.172,1.871,1.871,0,0,1,1.746,5.236ZM2.58,2.781H2.566a.064.064,0,0,0-.025.009.184.184,0,0,0-.092.115.084.084,0,0,0,.019.074.124.124,0,0,0,.081.034.541.541,0,0,0,.059,0c.058,0,.093-.019.105-.059a.137.137,0,0,0-.022-.138A.19.19,0,0,0,2.58,2.781Zm9.68,2.454a.553.553,0,0,1-.23-.068.935.935,0,0,1-.275-.235.959.959,0,0,1,.01-1.1s0,0,0,0a.233.233,0,0,1,0,.076v.01a1.183,1.183,0,0,0,.154.738l.012.014.009.01c.042.049.1.117.177.117a.15.15,0,0,0,.076-.023c.107-.035.155-.17.2-.288.016-.045.029-.082.043-.112a2.605,2.605,0,0,1,.29-.5c.1-.126.177-.133.19-.133h0l.026,0c.118,0,.182.1.278.241a1.194,1.194,0,0,0,.224.248.236.236,0,0,0,.067.01.188.188,0,0,0,.093-.022.863.863,0,0,0,.183-.682c-.023-.391-.067-1.059-.082-1.271v0l0-.055c0-.072,0-.138-.008-.2,0-.018,0-.035,0-.053l0-.051V1.88l0-.1a.588.588,0,0,0-.134-.17l0,0a1.046,1.046,0,0,1-.073-.077l-.131-.167,0,0-.008-.01c-.059-.075-.125-.16-.2-.249-.036-.045-.079-.088-.12-.129a1.177,1.177,0,0,1-.169-.2,1.016,1.016,0,0,1,0-.666c.085,0,.33.244.462.375l.022.022L13.4.567c.05.048.074.085.066.105s-.017.016-.037.016a.17.17,0,0,0-.092.027V.746A.561.561,0,0,1,13.4.815l.006.007.008.01A.624.624,0,0,0,13.5.923h0a.2.2,0,0,0,0-.086V.829a.056.056,0,0,1,0-.008c-.006-.067-.015-.135-.023-.2l0-.016,0-.013,0-.015,0-.038L13.467.5c0-.026-.007-.051-.01-.076a.324.324,0,0,1,.022-.179c.018-.039.078-.121.145-.121l.017,0c.085.017.136.135.173.221l0,0a.856.856,0,0,0,.039.081c.115.187.194.314.273.436,0,.01,0,.019,0,.029a.1.1,0,0,1-.031.09h-.011A.129.129,0,0,1,14,.954a.326.326,0,0,0-.052-.031.655.655,0,0,0,.016.3c0,.073.008.15.012.248l0,.072v0c.168.223.456.59.467.592a2.4,2.4,0,0,0-.052-.327l0-.015,0-.012,0-.012-.012-.057-.006-.029c-.016-.082-.033-.163-.049-.244V1.435c-.039-.187-.072-.355-.1-.513a2.636,2.636,0,0,1-.053-.4l0-.033a.357.357,0,0,1,.063-.279A.277.277,0,0,1,14.32.14a.112.112,0,0,1,.053-.014c.134,0,.275.263.421.782l.009.03c0,.047,0,.079-.019.1s-.038.021-.082.021h-.026v.016h-.017a2.155,2.155,0,0,0,.1.592,2.371,2.371,0,0,1,.058.324v.028a2.321,2.321,0,0,0,.051.3l.063.514.267.334c.083.112.208.283.33.47a1.008,1.008,0,0,1,.016.681l-.005.015a.013.013,0,0,1,0,.009l-.005.006a2.036,2.036,0,0,0-.137-.222l-.018-.026-.023-.033C15.23,3.881,15,3.506,15,3.5a.728.728,0,0,0-.005.1v.024a3.918,3.918,0,0,1-.028.405.976.976,0,0,1-.272.351l-.025.024-.008.008-.017.017-.015.015H14.61c0-.214-.008-.4-.018-.648V3.785l0-.065v0c0-.033,0-.066,0-.1V3.6l0-.058c0-.057,0-.116-.006-.178-.006-.111-.013-.224-.02-.336l-.01-.168c-.141-.186-.27-.36-.354-.474h-.033q.009.6.015,1.2v.032c0,.05,0,.1,0,.155v.008a1.47,1.47,0,0,1-.035.475.758.758,0,0,1-.159.268.508.508,0,0,1-.381.18.642.642,0,0,1-.263-.063,2.386,2.386,0,0,1-.316-.237.246.246,0,0,0-.162-.075.131.131,0,0,0-.067.017.443.443,0,0,0-.148.33l0,.008a1.163,1.163,0,0,1-.044.194.606.606,0,0,1-.21.319A.213.213,0,0,1,12.26,5.235ZM5.152,5.212a.757.757,0,0,1-.428-.129.55.55,0,0,1-.172-.228l-.016-.031L4.53,4.81l-.015-.027L4.5,4.757c-.192.059-.374.126-.576.2l-.011,0L3.9,4.969l-.022.009-.028.011L3.826,5,3.811,5l-.017.007-.115.032-.344.1-.072.02H3.238a.221.221,0,0,1-.1-.015.02.02,0,0,1-.005-.017c.006-.059.207-.2.293-.264.166-.109.373-.22.454-.262l.01-.005.009,0,.025-.014.021-.011.034-.018L4,4.533c.061-.033.124-.068.181-.1l.039-.023.091-.053.224-.13a.18.18,0,0,0,.078-.142v-.01l0-.008,0-.008a.249.249,0,0,1,.009-.035l0-.006,0-.006a.12.12,0,0,1,0-.013l0-.01,0-.007,0-.01.007-.023v0a1.109,1.109,0,0,1,.038-.113c.018-.051.107-.211.181-.212a.436.436,0,0,1-.013.07l-.005.024,0,.012c-.022.086-.049.193.008.262a.715.715,0,0,0,.16-.108l0,0,0,0,.009-.007,0,0,0,0,.008-.006.035-.029L5.1,3.814,5.119,3.8l.014-.011.01-.008.013-.01,0,0,0,0,0,0,.019-.015a1.067,1.067,0,0,0,.39-.409A.358.358,0,0,0,5.588,3.1a.684.684,0,0,0-.216-.287A.433.433,0,0,1,5.218,2.5a.336.336,0,0,1,.07-.247.219.219,0,0,1,.168-.076.39.39,0,0,1,.233.094.645.645,0,0,1,.224.432A.187.187,0,0,1,5.8,2.67H5.722a1.164,1.164,0,0,0,.072.168l0,0,0,0,0,0,0,0,0,0,0,0,0,0,0,0,0,0,0,0,0,0,0,0,0,0,0,0,0,0,0,0,0,0,0,0A.97.97,0,0,1,5.9,3.1a.845.845,0,0,1-.144.682,2.258,2.258,0,0,1-.852.725.233.233,0,0,0,.072.187c.015.017.027.032.04.05l.015,0h.016c.048,0,.114.01.176.01a.482.482,0,0,0,.2-.029,2.255,2.255,0,0,0,.917-.918A1.072,1.072,0,0,0,6.348,3.4c-.018-.079-.038-.157-.057-.234l-.005-.022-.023-.092-.027-.11a.625.625,0,0,0-.076-.161l-.01-.017L6.123,2.71a1.384,1.384,0,0,1-.1-.238.435.435,0,0,1,.016-.424.149.149,0,0,1,.108-.061c.11,0,.193.179.238.276l.01.022a4.012,4.012,0,0,1,.24.652,1.172,1.172,0,0,1,.033.215.623.623,0,0,0,.064.273.087.087,0,0,0,.07-.069l0-.01,0-.011a.336.336,0,0,1,.079-.108,1.927,1.927,0,0,1,.839-.38.714.714,0,0,1,.139-.021H7.9A.6.6,0,0,0,8.02,2.8a1.186,1.186,0,0,0,.023-.176V2.571A.723.723,0,0,1,8.133,2.2.444.444,0,0,1,8.5,2.007a.682.682,0,0,1,.454.2.535.535,0,0,1,.017.563,1.148,1.148,0,0,1-1.014.489l-.006.008-.009.006a.189.189,0,0,0,.01.046l0,.014.469.006h.334l.338,0h.1l.019,0h.027a1.221,1.221,0,0,1,.124-.006.38.38,0,0,1,.23.058.453.453,0,0,0-.169.3.685.685,0,0,1-.087.221,2.29,2.29,0,0,1-.741.17H8.587c-.12.016-.242.033-.327.051l-.076.007H8.174l-.066.006-.167.015c-.06.039-.2.138-.216.223-.016.106.173.232.312.288s.241.113.191.258c-.029.081-.1.12-.222.12a.956.956,0,0,1-.134-.011,2,2,0,0,1-.781-.258,1.707,1.707,0,0,1-.278-.217l-.03-.035-.021-.025,0,0-.016-.019,0,0-.019-.023-.006-.008A1.462,1.462,0,0,0,6.589,4.3a.436.436,0,0,0-.272.222l-.009.013,0,.007L6.3,4.549c-.015.021-.03.042-.045.06A1.632,1.632,0,0,1,5.152,5.212ZM6.911,3.688h0a.09.09,0,0,1-.049.021H6.851a.142.142,0,0,0-.037.011c-.068.323.136.471.334.613l.017.011.009.006,0,0c.039.028.084.06.119.092h0a.2.2,0,0,0,.094-.015.241.241,0,0,0,.012-.152V4.272a.339.339,0,0,1,0-.137c.037-.105.167-.156.282-.2l.008,0a1.177,1.177,0,0,0,.111-.048c0-.061-.007-.092-.048-.118a5.057,5.057,0,0,0-.846-.078Zm1.461-1.21h-.03a.009.009,0,0,0-.009.005c-.013.021.011.092.015.1a.213.213,0,0,0,.119.08l.032,0a.185.185,0,0,0,.1-.018.011.011,0,0,0,0-.008C8.591,2.528,8.521,2.478,8.372,2.478ZM.331,5.173A.3.3,0,0,1,.02,4.96a1.3,1.3,0,0,1,.238-1s.015.151.013.166a.97.97,0,0,1-.019.136v.008l0,.011,0,.011,0,.01v.009c0,.022-.007.044-.01.065a.517.517,0,0,0,.058.414A.389.389,0,0,1,.5,4.66a.055.055,0,0,1,.047.024c.042.061,0,.225-.024.3C.5,5.03.439,5.163.369,5.172A.212.212,0,0,1,.331,5.173Zm8.588-.179H8.9c-.063,0-.112,0-.128-.065a.229.229,0,0,1,0-.079.337.337,0,0,0,0-.062v0c0-.026-.007-.059-.032-.071a.035.035,0,0,0-.022,0,.153.153,0,0,0-.046.009H8.658a.178.178,0,0,1-.052.011.054.054,0,0,1-.023,0c-.023-.011-.027-.017-.032-.025l0,0-.015-.017a.017.017,0,0,1,0-.016c.009-.059.2-.2.265-.231a.036.036,0,0,1,.011-.006h.008l.016,0a.3.3,0,0,1,.1.026l.018.007,0,0a.319.319,0,0,1-.02.09v0c-.018.059-.037.119.007.172l0,0,0,0,0,0,0,0a.206.206,0,0,1,.01.029.543.543,0,0,0,.156-.044l0,0,.008,0,.007,0a.721.721,0,0,1,.225-.058.126.126,0,0,1,.082.02h.033l0,.005V4.7a.039.039,0,0,0,.005.01l.006.007v.006a.141.141,0,0,1-.016.083.771.771,0,0,1-.255.091l-.006,0H9.2a.847.847,0,0,0-.276.1Zm.757-.282h0c0-.1,0-.2.007-.3V4.3c.008-.2.018-.44,0-.654-.01-.16-.016-.3-.016-.5l-.032-.517L9.558,1.9l-.172-.237c-.055-.072-.123-.164-.219-.3L9.16,1.355c-.113-.157-.216-.3-.326-.434C8.8.881,8.765.842,8.729.8L8.719.793l0,0A.994.994,0,0,1,8.5.508.719.719,0,0,1,8.469.189s0,0,0-.007,0,0,0-.007a.112.112,0,0,1,0-.013V.154c0-.006,0-.011,0-.016A.377.377,0,0,0,8.534.065a1.293,1.293,0,0,1,.747.511c0-.013,0-.03,0-.051A.591.591,0,0,1,9.289.316a.382.382,0,0,1,.13-.193L9.426.118a.021.021,0,0,1,.01,0h0l.006,0,0,0c.053.074.113.148.166.212l.008.009a2.593,2.593,0,0,1,.261.357,1.134,1.134,0,0,1,.1.277c.018.043.022.071.013.085a.023.023,0,0,1-.021.01.2.2,0,0,1-.088-.037.02.02,0,0,0-.011,0,.01.01,0,0,0-.008,0c-.012.013-.008.059,0,.092v0c0,.008,0,.013,0,.017a2.195,2.195,0,0,0,.05.3.8.8,0,0,1,.015.155V1.6a.763.763,0,0,0,.02.184A.586.586,0,0,0,10.089,2l.013.016.006.007,0,0,.012.014a5.468,5.468,0,0,1,.483.723l0,.008,0,0,.017.029.018.031c.072.121.143.238.217.351a1.132,1.132,0,0,1,.13.334l0,.011c.039.149.1.4-.019.521a.048.048,0,0,1-.032.017c-.04,0-.07-.075-.09-.125l0-.006,0-.006c0-.011-.009-.021-.013-.028-.022-.041-.041-.082-.061-.125l0,0-.006-.014-.009-.019-.01-.021-.025-.051a4.6,4.6,0,0,0-.281-.457l0,0a4.785,4.785,0,0,1-.26-.419c-.024-.044-.043-.078-.064-.11a.343.343,0,0,0-.029-.034l0,0a.182.182,0,0,1-.044-.063h0a.015.015,0,0,0-.011,0,.472.472,0,0,0-.007.208v.017q0,.025,0,.035l.006.1v.005l.011.2c.01.223.018.424.018.625,0,.043,0,.089,0,.145v.027a1.08,1.08,0,0,1-.024.36C9.92,4.695,9.686,4.712,9.676,4.713Zm2.309-.2a.018.018,0,0,1-.011,0A11.438,11.438,0,0,0,11.7,2c-.02-.09-.037-.184-.053-.272L11.642,1.7l0-.011,0-.016,0-.014V1.652a4.233,4.233,0,0,0-.094-.433c-.086-.292-.09-.949.128-1.081a3.644,3.644,0,0,0,.274.489c.015.023.033.046.053.071L12,.705l0,0a.51.51,0,0,1,.146.3h-.029a.392.392,0,0,0-.179.03,2.4,2.4,0,0,0,.1.575A2.58,2.58,0,0,1,12.1,2v.038a2.26,2.26,0,0,0,.049.316c.011.091.022.183.033.275l.016.13.024.2c.007.055.014.111.02.167l.012.1,0,.032v.007q.018.152.037.3a1.668,1.668,0,0,1-.088.678C12.1,4.455,12.018,4.509,11.985,4.509ZM4.342,4a.019.019,0,0,1-.018-.012c.007-.254,0-.4-.193-.518a.122.122,0,0,1,0-.1.1.1,0,0,1,.081-.048h.015a.3.3,0,0,1,.23.18.435.435,0,0,1-.065.471A.079.079,0,0,1,4.342,4Zm9.11-.16h0a.224.224,0,0,1-.061-.014.61.61,0,0,1,0-.082.887.887,0,0,0-.131-.556c-.036-.146-.006-.174.06-.236a.1.1,0,0,1,.051-.013.151.151,0,0,1,.11.056c.058.063.148.234.1.667a.273.273,0,0,1-.128.177ZM.156,3.393v0a1.073,1.073,0,0,1,.132-.23l.018-.025.007-.01,0,0,.008-.011a1.411,1.411,0,0,1,.491-.376,1.083,1.083,0,0,1,.293-.113.767.767,0,0,1,.113-.012.336.336,0,0,1,.179.046.156.156,0,0,1,.061.076l0,0a.315.315,0,0,0,.032.053.009.009,0,0,1,0,.008,1.569,1.569,0,0,1-.411.183l-.034.012c-.08.034-.161.074-.247.117l-.018.009-.009,0,0,0L.761,3.13l-.02.01-.016.008-.011.006L.7,3.161l-.024.012-.012.006L.644,3.19c-.08.041-.127.063-.164.08l-.01,0a1.108,1.108,0,0,1-.139.051h0a1.04,1.04,0,0,0-.168.065Zm12.508-.161a.014.014,0,0,1-.01,0,.362.362,0,0,1-.021-.182v0c0-.078.133-.155.221-.206l.008,0,.014-.008.056-.034.053-.039,0,0,0,0,0,0,0,0,0,0,0,0a2.45,2.45,0,0,1,.319-.208l.012-.007.012-.006a.754.754,0,0,0,.089-.053l.005,0,0,0,0,0,.006-.006,0,0a.089.089,0,0,1,.054-.032.043.043,0,0,1,.02.005c.027.014.028.053.03.077v.019a.331.331,0,0,1-.162.29A4.064,4.064,0,0,1,12.664,3.232ZM7.392,2.6a.289.289,0,0,1-.175-.048A.2.2,0,0,1,7.1,2.414a.186.186,0,0,1,.022-.174l.006-.017c0-.007,0-.014.007-.021l0-.006a.114.114,0,0,1,.1.046.094.094,0,0,1,.011.023v0c.007.02.014.04.034.045h.006c.02,0,.037-.02.052-.059a.207.207,0,0,0,.007-.022l0-.006v0l0-.005c0-.014.008-.022.011-.022.076.008.091.05.109.1l0,0a.4.4,0,0,0,.018.045h.033c.007-.019.013-.037.019-.055l0-.007,0-.007,0-.007,0-.006a.46.46,0,0,1,.034-.081h.066l.012.019a.112.112,0,0,1,.019.04.316.316,0,0,1,.017.223C7.668,2.547,7.515,2.6,7.392,2.6Zm5.674-.2h0a1.252,1.252,0,0,1-.243-.116.853.853,0,0,1-.348-.331.257.257,0,0,1,0-.23.162.162,0,0,1,.139-.077h.008a.122.122,0,0,1,.1.061l.022.028a.114.114,0,0,0,.058.043.416.416,0,0,0,.048-.006h.017l.041-.005a.269.269,0,0,1,0-.25.172.172,0,0,1,.136-.091h.016c.072,0,.133.048.182.141a.517.517,0,0,1,.051.16.088.088,0,0,1-.006.069.045.045,0,0,1-.038.013.357.357,0,0,1-.066-.01l-.013,0a.229.229,0,0,1-.066.045l-.033.562ZM6.75,2.066a.466.466,0,0,1-.332-.145.555.555,0,0,1-.154-.4.782.782,0,0,0,0-.107V1.4c0-.019,0-.039,0-.058s0-.04,0-.06a.713.713,0,0,0-.014-.151c-.114.009-.131.116-.146.211a.59.59,0,0,1-.017.084l-.006.018-.013.039a1.128,1.128,0,0,1-.159.358.184.184,0,0,1-.152.072.477.477,0,0,1-.224-.074A.659.659,0,0,1,5.31,1.6,1.18,1.18,0,0,1,5.2,1.082,1.915,1.915,0,0,1,5.271.538.194.194,0,0,1,5.328.55l.008,0c.036.011.061.182.071.246l0,.013V.82c0,.01,0,.027.005.049.018.171.067.625.242.625a.124.124,0,0,0,.048-.01c.091-.038.108-.153.123-.255v0a.649.649,0,0,1,.022-.109A2.281,2.281,0,0,1,6.079.657l0-.007c.063-.1.149-.229.284-.229H6.38a.182.182,0,0,1,.134.06c.082.1.064.293.046.483s-.035.376.045.461a.221.221,0,0,0,.141.118l.006,0a.5.5,0,0,1,.08.042.367.367,0,0,0,.292-.123A.732.732,0,0,0,7.232.923,1.271,1.271,0,0,0,7.17.7.96.96,0,0,1,7.1.4.418.418,0,0,1,7.18.182S7.192.163,7.2.145A.537.537,0,0,1,7.3.006h.065l.012.023,0,.005A1.745,1.745,0,0,1,7.523.39a1.87,1.87,0,0,1,.036.431,1.5,1.5,0,0,0,.045.443c.005.017.01.035.015.053l0,.01c.029.1.056.2.157.233a.222.222,0,0,0,.068.011.287.287,0,0,0,.187-.09.465.465,0,0,1,.051-.039A1.038,1.038,0,0,0,7.94.835C7.927.816,7.911.8,7.894.775L7.889.769l0-.005A.561.561,0,0,1,7.811.657a.5.5,0,0,1,.033-.4c.032-.09.118-.135.257-.135l.049,0,.008.008.012.011c.1.093.375.342.286.471-.018.036-.082.047-.133.056a.368.368,0,0,0-.076.019,2.415,2.415,0,0,0,.225.695.714.714,0,0,0,.165.024.356.356,0,0,0,.1-.015.4.4,0,0,0,.081-.041.287.287,0,0,1,.1-.047h.011a.048.048,0,0,1,.042.02.215.215,0,0,1,0,.156.539.539,0,0,1-.123.188L8.82,1.7a.264.264,0,0,1-.14.1l-.029,0a.074.074,0,0,1-.074-.035.453.453,0,0,1,.029-.138l0-.016a.042.042,0,0,0,0-.011l-.008,0a.164.164,0,0,1-.039-.026c-.057,0-.068.006-.1.03a.975.975,0,0,0-.2.241.319.319,0,0,0-.016.031l0,0a.171.171,0,0,1-.037.055.589.589,0,0,1-.263.077l-.037,0a.362.362,0,0,1-.182-.048.621.621,0,0,1-.151-.137.286.286,0,0,1-.018-.025l-.009-.013,0,0c-.029-.042-.065-.095-.081-.1a.421.421,0,0,0-.258.14,1.47,1.47,0,0,1-.185.141A.5.5,0,0,1,6.75,2.066Zm-2.07-.127A.154.154,0,0,1,4.565,1.9a.279.279,0,0,1-.1-.234.359.359,0,0,1,.061-.125l0-.006c.055-.095.083-.117.1-.119l.016,0A.052.052,0,0,0,4.677,1.4l.035.008.015,0h0l.009,0a.144.144,0,0,1-.032.1.4.4,0,0,0,.048.237A.226.226,0,0,0,4.9,1.705a.126.126,0,0,0,.016-.017l0,0a.058.058,0,0,1,.026-.022H5c-.041.14-.105.224-.19.25A.341.341,0,0,1,4.679,1.939Zm10.363-.407h0a1.1,1.1,0,0,1-.017-.135c0-.014,0-.025,0-.037v0l0-.013V1.338a.349.349,0,0,0,.005-.09.367.367,0,0,0-.071-.171l-.007-.01A.84.84,0,0,1,14.914.99l0,0c-.005-.011-.011-.024-.02-.039l0-.007,0-.009a.365.365,0,0,1-.066-.2.113.113,0,0,1,.113-.094h.013A.2.2,0,0,1,15.076.7a.427.427,0,0,1,.1.22l0,.016,0,.011,0,.016a.715.715,0,0,1,.015.346.479.479,0,0,1-.063.137.421.421,0,0,1-.091.09ZM4.026,1.512a.655.655,0,0,1-.232-.026l-.009-.006,0-.005,0,0a4.366,4.366,0,0,0,.439-.311l0,0,0,0,0,0,.006,0,.006,0,.1-.08.032-.024.014-.01L4.4,1.019l.018-.013L4.438.991,4.447.985A1.188,1.188,0,0,0,4.585.878L4.607.86,4.62.849c.048-.038.108-.086.113-.136s-.04-.08-.08-.105L4.648.6l0,0A.308.308,0,0,1,4.6.566a.213.213,0,0,1-.037-.2A.211.211,0,0,1,4.671.214L4.694.2A.054.054,0,0,1,4.71.19l.006,0,.009,0,0,0A.1.1,0,0,0,4.757.168h0a.353.353,0,0,1,.27.089.231.231,0,0,1,.048.188.175.175,0,0,1-.071.109L5,.561C4.974.586,4.954.6,4.955.622s.013.03.043.056A.1.1,0,0,1,5.042.75c0,.042-.049.079-.1.115a.489.489,0,0,0-.061.051,2.094,2.094,0,0,0-.163.19.973.973,0,0,1-.462.38A.664.664,0,0,1,4.026,1.512ZM4.792.376a.046.046,0,0,0-.026.008.09.09,0,0,0-.028.073.134.134,0,0,0,.037.1.1.1,0,0,0,.062.025A.066.066,0,0,0,4.9.527.126.126,0,0,0,4.826.386.057.057,0,0,0,4.792.376Zm5.561.666h0l0-.057V.961l0-.049c0-.056.005-.111.009-.166a.522.522,0,0,0-.13-.2.926.926,0,0,1-.1-.116A.105.105,0,0,1,10.127.4l0-.009v0a.084.084,0,0,0-.016-.04.21.21,0,0,1,.027-.092l.006-.011a.2.2,0,0,0,.064-.03.3.3,0,0,1,.29.18.675.675,0,0,1-.082.635l-.012,0a.2.2,0,0,1-.051.011ZM.662.817h0A.351.351,0,0,1,.648.667.367.367,0,0,0,.635.514.422.422,0,0,0,.545.392l0,0A.4.4,0,0,1,.458.279.188.188,0,0,1,.476.149.045.045,0,0,1,.514.124a.226.226,0,0,1,.145.03A.345.345,0,0,1,.8.478C.8.49.784.778.662.817ZM6.783.687h0a.192.192,0,0,1-.1-.025L6.67.657A.862.862,0,0,1,6.848.035H6.9L6.9.043a.069.069,0,0,0,.026.022.664.664,0,0,1-.07.5C6.841.6,6.826.638,6.814.672L6.8.676l0,0a.017.017,0,0,0-.009,0L6.783.687ZM5.683.577a.121.121,0,0,1-.1-.061C5.5.4,5.611.208,5.633.169A.353.353,0,0,1,5.746.05.346.346,0,0,1,5.87,0a.027.027,0,0,1,.013,0A.029.029,0,0,1,5.9.021.166.166,0,0,1,5.86.126a.5.5,0,0,1-.072.086L5.779.222A.1.1,0,0,0,5.741.33c.013.062.044.062.083.062h.015A.191.191,0,0,1,5.88.4.237.237,0,0,1,5.683.577Zm-3.474,0A.287.287,0,0,1,2.034.527.206.206,0,0,1,1.916.389a.186.186,0,0,1,.02-.173L1.953.172c.085,0,.1.032.111.076A.3.3,0,0,0,2.081.29h.01A.094.094,0,0,0,2.146.275a.232.232,0,0,0,.031-.1c.078.008.093.051.111.1l0,.009,0,.005L2.307.32h.032C2.346.3,2.353.28,2.36.261A.571.571,0,0,1,2.4.157h.065L2.48.175A.174.174,0,0,1,2.5.216a.323.323,0,0,1,.016.222C2.486.523,2.333.576,2.209.576Z" transform="translate(1.416 4.901)" fill="#fff"/><path d="M.2.247S0,.163.074.024A.723.723,0,0,1,.278,0c.128,0,.21.059.155.148S.331.3.451.3.659.33.54.44.091.681.02.578.11.408.166.356A.1.1,0,0,0,.2.247" transform="translate(15.512 9.514)" fill="#fff"/><path d="M.145.2S.151.29.2.29.257.273.268.2.38.145.38.213.422.319.453.29C.453.29.44.135.541.145S.632.323.611.409.477.569.317.569.041.53.006.376.1.083.145.2" transform="translate(11.511 6.096)" fill="#fff"/><path d="M.325.269.467.256.534.548S.325.323.325.269" transform="translate(10.279 5.395)" fill="#fff"/><path d="M.937.931A1.416,1.416,0,0,1,.964.2c.13-.232.081-.287.247-.01s.385.655.107.68a4.821,4.821,0,0,0,.128,1.071,13.882,13.882,0,0,1,.1,1.944,1.912,1.912,0,0,1-.771,1.1C.442,5.2.085,5.15,0,4.883a9.513,9.513,0,0,0,.851-.532c.332-.262.381-.3.381-.583s-.16-1.717-.16-1.717Z" transform="translate(11.311 5.065)" fill="#fff"/><path d="M11.474,1.43h0a.225.225,0,0,1-.224-.138l-1.2.005c-.019.026-.085.106-.159.106a.138.138,0,0,1-.114-.082A.5.5,0,0,1,9.733.854h-.07c-.579,0-2.607.007-3.007.009H2.78l-1.512,0s-.034,0-.087,0A1.482,1.482,0,0,1,0,.311H0C.011.311,1.358.38,2.26.38c.865,0,3.488.014,3.6.015L9.76.4l0,0c-.039-.045-.128-.16-.1-.259.019-.067.088-.116.2-.144a.141.141,0,0,0,.025.1A.027.027,0,0,0,9.9.109c.011,0,.1,0,.138.064S10.05.3,9.98.409c.329.018.547.031.691.04s.225.014.273.014.17-.015.275-.028c.086-.011.167-.021.2-.021a.463.463,0,0,1,.391.449c.04.364-.039.527-.273.562A.4.4,0,0,1,11.474,1.43Zm-.8-.422a.242.242,0,0,1,.164.072h.348a.174.174,0,0,0,.037-.1A.106.106,0,0,0,11.185.9c-.271,0-1.116-.014-1.152-.015,0,0-.081.119,0,.193h.477A.246.246,0,0,1,10.673,1.008Z" transform="translate(3.613 13.19)" fill="#fff"/></g></g></svg>