<svg xmlns="http://www.w3.org/2000/svg" width="23" height="23" viewBox="0 0 23 23"><g transform="translate(-313.5 -15)"><rect width="23" height="23" rx="2" transform="translate(313.5 15)" fill="#2c43a7" opacity="0.05"/><g transform="translate(316.722 17.718)"><path d="M74.105,1.282a.353.353,0,0,0-.291.153c-.193.28-4.716,6.907-4.716,10.259a5.007,5.007,0,1,0,10.014,0c0-3.352-4.524-9.978-4.716-10.259a.353.353,0,0,0-.291-.153Zm0,14.713a4.306,4.306,0,0,1-4.3-4.3c0-2.666,3.29-7.883,4.3-9.422,1.01,1.539,4.3,6.756,4.3,9.422A4.306,4.306,0,0,1,74.105,15.995Z" transform="translate(-65.844)" fill="#00a2ff"/><path d="M167.927,218.235a.353.353,0,0,0,.353.353,3.363,3.363,0,0,0,3.359-3.359.353.353,0,0,0-.706,0,2.656,2.656,0,0,1-2.653,2.652A.353.353,0,0,0,167.927,218.235Z" transform="translate(-160.019 -203.535)" fill="#00a2ff"/><path d="M273.266,10.623h-.686V9.936a.353.353,0,1,0-.706,0v.686h-.686a.353.353,0,1,0,0,.706h.686v.686a.353.353,0,1,0,.706,0v-.686h.686a.353.353,0,1,0,0-.706Z" transform="translate(-258.08 -7.91)" fill="#00a2ff"/><path d="M2.432,236.457H1.746v-.686a.353.353,0,0,0-.706,0v.686H.353a.353.353,0,1,0,0,.706H1.04v.686a.353.353,0,0,0,.706,0v-.686h.686a.353.353,0,1,0,0-.706Z" transform="translate(0 -223.109)" fill="#00a2ff"/></g></g></svg>