<svg xmlns="http://www.w3.org/2000/svg" width="25.333" height="25.333" viewBox="0 0 25.333 25.333"><path d="M25.333,12.341A12.459,12.459,0,0,1,6.885,23.146L0,25.333,2.244,18.71A12.215,12.215,0,0,1,.461,12.34a12.436,12.436,0,0,1,24.872,0ZM12.895,1.968A10.427,10.427,0,0,0,2.44,12.343a10.263,10.263,0,0,0,1.992,6.082L3.127,22.277,7.143,21a10.468,10.468,0,0,0,16.208-8.66A10.426,10.426,0,0,0,12.895,1.968Zm6.281,13.215c-.078-.125-.281-.2-.585-.353s-1.8-.883-2.083-.982-.484-.153-.687.15-.786.984-.965,1.187-.355.228-.66.078a8.4,8.4,0,0,1-2.453-1.5,9.1,9.1,0,0,1-1.7-2.095c-.179-.3-.018-.466.133-.616s.3-.354.458-.531a2.016,2.016,0,0,0,.3-.5.563.563,0,0,0-.026-.531c-.076-.152-.685-1.639-.94-2.244s-.507-.5-.686-.5-.381-.025-.584-.025a1.116,1.116,0,0,0-.812.377A3.385,3.385,0,0,0,6.831,9.612,5.848,5.848,0,0,0,8.075,12.74a12.485,12.485,0,0,0,5.208,4.567c3.1,1.21,3.1.806,3.659.755A3.075,3.075,0,0,0,19,16.625,2.513,2.513,0,0,0,19.176,15.183Z" fill="#29c289"/></svg>